<svg width="38" height="40" viewBox="0 0 38 40" fill="none" xmlns="http://www.w3.org/2000/svg">
<path d="M35.812 32.2852C34.891 30.1034 33.5543 28.1216 31.8765 26.4502C30.2038 24.774 28.2223 23.4375 26.0415 22.5146C26.022 22.5049 26.0025 22.5 25.9829 22.4902C29.0249 20.293 31.0025 16.7139 31.0025 12.6758C31.0025 5.98633 25.5826 0.566406 18.8931 0.566406C12.2036 0.566406 6.78372 5.98633 6.78372 12.6758C6.78372 16.7139 8.76126 20.293 11.8033 22.4951C11.7837 22.5049 11.7642 22.5098 11.7447 22.5195C9.55716 23.4424 7.59427 24.7656 5.9097 26.4551C4.23348 28.1278 2.89702 30.1092 1.97415 32.29C1.06752 34.4251 0.578556 36.7141 0.533722 39.0332C0.532419 39.0853 0.541559 39.1372 0.560606 39.1857C0.579652 39.2342 0.608219 39.2784 0.644622 39.3158C0.681026 39.3531 0.72453 39.3827 0.77257 39.403C0.820611 39.4232 0.872217 39.4336 0.924347 39.4336H3.85403C4.06888 39.4336 4.23978 39.2627 4.24466 39.0527C4.34232 35.2832 5.85599 31.7529 8.53177 29.0772C11.3003 26.3086 14.9771 24.7852 18.8931 24.7852C22.8091 24.7852 26.4859 26.3086 29.2544 29.0772C31.9302 31.7529 33.4439 35.2832 33.5415 39.0527C33.5464 39.2676 33.7173 39.4336 33.9322 39.4336H36.8618C36.914 39.4336 36.9656 39.4232 37.0136 39.403C37.0617 39.3827 37.1052 39.3531 37.1416 39.3158C37.178 39.2784 37.2065 39.2342 37.2256 39.1857C37.2446 39.1372 37.2538 39.0853 37.2525 39.0332C37.2036 36.6992 36.7202 34.4287 35.812 32.2852ZM18.8931 21.0742C16.6519 21.0742 14.5425 20.2002 12.9556 18.6133C11.3687 17.0264 10.4947 14.917 10.4947 12.6758C10.4947 10.4346 11.3687 8.32519 12.9556 6.73828C14.5425 5.15137 16.6519 4.27734 18.8931 4.27734C21.1343 4.27734 23.2437 5.15137 24.8306 6.73828C26.4175 8.32519 27.2915 10.4346 27.2915 12.6758C27.2915 14.917 26.4175 17.0264 24.8306 18.6133C23.2437 20.2002 21.1343 21.0742 18.8931 21.0742Z" fill="black"/>
</svg>
