<svg width="55" height="54" viewBox="0 0 55 54" fill="none" xmlns="http://www.w3.org/2000/svg">
<g clip-path="url(#clip0_9_4)">
<path d="M3.14307 45V49.5C3.14307 51.9862 5.15682 54 7.64307 54H48.1431C50.6293 54 52.6431 51.9862 52.6431 49.5V45H3.14307ZM50.3931 49.5C50.3931 50.7397 49.3828 51.75 48.1431 51.75H7.64307C6.40332 51.75 5.39307 50.7397 5.39307 49.5V47.25H50.3931V49.5Z" fill="black"/>
<path d="M27.8931 0C7.71282 0 3.14307 9.999 3.14307 20.25H52.6431C52.6431 9.999 48.1431 0 27.8931 0ZM27.8931 2.25C46.1518 2.25 49.7923 10.6718 50.3166 18H5.46957C5.99382 10.6718 9.63432 2.25 27.8931 2.25Z" fill="black"/>
<path d="M52.6431 33.75H48.1431L41.3931 38.25L34.6431 33.75H3.14307C1.90107 33.75 0.893066 34.758 0.893066 36V40.5C0.893066 41.742 1.90107 42.75 3.14307 42.75H52.6431C53.8851 42.75 54.8931 41.742 54.8931 40.5V36C54.8931 34.758 53.8851 33.75 52.6431 33.75ZM3.14307 40.5V36H33.9613L40.7113 40.5H3.14307ZM52.6431 40.5H42.0748L48.8248 36H52.6431V40.5Z" fill="black"/>
<path d="M49.5943 25.0785C48.5188 26.1518 47.6706 27 45.8818 27C44.0953 27 43.2471 26.154 42.1738 25.0785C41.0218 23.931 39.5908 22.5 36.8706 22.5C34.1548 22.5 32.7261 23.931 31.5763 25.0785C30.5053 26.154 29.6571 27 27.8751 27C26.0931 27 25.2448 26.154 24.1716 25.0785C23.0241 23.931 21.5953 22.5 18.8818 22.5C16.1661 22.5 14.7373 23.931 13.5876 25.0808C12.5166 26.154 11.6706 27 9.88857 27C8.10657 27 7.25832 26.154 6.18507 25.0785C5.03757 23.931 3.60882 22.5 0.893066 22.5V24.75C2.67507 24.75 3.52332 25.596 4.59657 26.6715C5.74407 27.819 7.17282 29.25 9.88857 29.25C12.6021 29.25 14.0308 27.819 15.1806 26.6715C16.2516 25.596 17.0998 24.75 18.8818 24.75C20.6638 24.75 21.5098 25.596 22.5831 26.6693C23.7306 27.819 25.1593 29.25 27.8751 29.25C30.5908 29.25 32.0196 27.819 33.1693 26.6715C34.2403 25.596 35.0886 24.75 36.8706 24.75C38.6593 24.75 39.5076 25.5983 40.5808 26.6715C41.7328 27.8213 43.1638 29.25 45.8818 29.25C48.6021 29.25 50.0331 27.819 51.1828 26.6715C52.2583 25.596 53.1066 24.75 54.8931 24.75V22.5C52.1751 22.5 50.7441 23.9288 49.5943 25.0785Z" fill="black"/>
<path d="M12.1431 15.1875C13.075 15.1875 13.8306 14.432 13.8306 13.5C13.8306 12.568 13.075 11.8125 12.1431 11.8125C11.2111 11.8125 10.4556 12.568 10.4556 13.5C10.4556 14.432 11.2111 15.1875 12.1431 15.1875Z" fill="black"/>
<path d="M18.8931 9.5625C19.825 9.5625 20.5806 8.80698 20.5806 7.875C20.5806 6.94302 19.825 6.1875 18.8931 6.1875C17.9611 6.1875 17.2056 6.94302 17.2056 7.875C17.2056 8.80698 17.9611 9.5625 18.8931 9.5625Z" fill="black"/>
<path d="M27.8931 15.1875C28.825 15.1875 29.5806 14.432 29.5806 13.5C29.5806 12.568 28.825 11.8125 27.8931 11.8125C26.9611 11.8125 26.2056 12.568 26.2056 13.5C26.2056 14.432 26.9611 15.1875 27.8931 15.1875Z" fill="black"/>
<path d="M36.8931 9.5625C37.825 9.5625 38.5806 8.80698 38.5806 7.875C38.5806 6.94302 37.825 6.1875 36.8931 6.1875C35.9611 6.1875 35.2056 6.94302 35.2056 7.875C35.2056 8.80698 35.9611 9.5625 36.8931 9.5625Z" fill="black"/>
<path d="M43.6431 15.1875C44.575 15.1875 45.3306 14.432 45.3306 13.5C45.3306 12.568 44.575 11.8125 43.6431 11.8125C42.7111 11.8125 41.9556 12.568 41.9556 13.5C41.9556 14.432 42.7111 15.1875 43.6431 15.1875Z" fill="black"/>
</g>
<defs>
<clipPath id="clip0_9_4">
<rect width="54" height="54" fill="white" transform="translate(0.893066)"/>
</clipPath>
</defs>
</svg>
