<svg width="38" height="34" viewBox="0 0 38 34" fill="none" xmlns="http://www.w3.org/2000/svg">
<path d="M14.7264 33.6667C13.6213 33.6667 12.5615 33.2277 11.7801 32.4463C10.9987 31.6649 10.5597 30.6051 10.5597 29.5C10.5597 28.3949 10.9987 27.3351 11.7801 26.5537C12.5615 25.7723 13.6213 25.3333 14.7264 25.3333C15.8314 25.3333 16.8912 25.7723 17.6726 26.5537C18.454 27.3351 18.893 28.3949 18.893 29.5C18.893 30.6051 18.454 31.6649 17.6726 32.4463C16.8912 33.2277 15.8314 33.6667 14.7264 33.6667ZM29.3097 33.6667C28.2046 33.6667 27.1448 33.2277 26.3634 32.4463C25.582 31.6649 25.143 30.6051 25.143 29.5C25.143 28.3949 25.582 27.3351 26.3634 26.5537C27.1448 25.7723 28.2046 25.3333 29.3097 25.3333C30.4148 25.3333 31.4746 25.7723 32.256 26.5537C33.0374 27.3351 33.4764 28.3949 33.4764 29.5C33.4764 30.6051 33.0374 31.6649 32.256 32.4463C31.4746 33.2277 30.4148 33.6667 29.3097 33.6667ZM2.1472 4.33958C1.62712 4.3228 1.13395 4.10441 0.771987 3.73058C0.410023 3.35676 0.207642 2.8568 0.207642 2.33645C0.207642 1.8161 0.410023 1.31615 0.771987 0.942323C1.13395 0.568495 1.62712 0.350103 2.1472 0.333328H4.54512C6.42428 0.333328 8.04928 1.63749 8.45762 3.47083L11.068 15.225C11.4764 17.0583 13.1014 18.3625 14.9805 18.3625H30.6305L33.6347 6.34166H14.1659C13.6508 6.31815 13.1645 6.09695 12.8082 5.72406C12.4519 5.35117 12.2531 4.8553 12.2531 4.33958C12.2531 3.82386 12.4519 3.32798 12.8082 2.95509C13.1645 2.58221 13.6508 2.361 14.1659 2.33749H33.6347C34.2437 2.33731 34.8448 2.47599 35.3922 2.74298C35.9396 3.00997 36.4189 3.39825 36.7937 3.8783C37.1685 4.35834 37.4289 4.91752 37.5551 5.51332C37.6814 6.10912 37.6701 6.72586 37.5222 7.31666L34.518 19.3333C34.3015 20.2004 33.8012 20.9702 33.0968 21.5202C32.3923 22.0702 31.5242 22.3689 30.6305 22.3687H14.9805C13.1572 22.369 11.3883 21.7473 9.96598 20.6065C8.54366 19.4656 7.55301 17.8737 7.15762 16.0937L4.54512 4.33958H2.1472Z" fill="black"/>
</svg>
