<svg width="43" height="42" viewBox="0 0 43 42" fill="none" xmlns="http://www.w3.org/2000/svg">
<path d="M40.9243 14.4375H39.6118C39.6108 13.5676 39.2648 12.7335 38.6497 12.1184C38.0345 11.5033 37.2005 11.1572 36.3306 11.1563H36.327C37.1825 10.0219 37.6445 8.6395 37.6431 7.21876C37.6431 7.10689 37.6145 6.99688 37.56 6.89918C37.5055 6.80147 37.427 6.71932 37.3318 6.66051C37.2367 6.6017 37.128 6.56819 37.0163 6.56317C36.9045 6.55814 36.7934 6.58177 36.6933 6.6318L30.3463 9.80533C30.3623 9.50535 30.354 9.20458 30.3214 8.90595L32.6963 6.53111C33.1909 6.62114 33.7012 6.5186 34.1226 6.24451C34.544 5.97042 34.8446 5.54553 34.9628 5.05692C35.0811 4.56831 35.0079 4.05299 34.7585 3.61656C34.509 3.18013 34.102 2.85564 33.621 2.7096C33.4745 2.22912 33.1499 1.82278 32.7136 1.57375C32.2774 1.32471 31.7625 1.2518 31.2742 1.36993C30.786 1.48807 30.3613 1.78832 30.0872 2.20924C29.813 2.63017 29.7101 3.13994 29.7995 3.63426L27.422 6.01168C26.6121 5.91846 25.6627 6.01795 24.6112 6.31549C22.8992 6.79999 21.1478 7.75813 20.1495 8.75644C19.8419 9.06429 19.5738 9.40914 19.3512 9.7831C18.2688 9.23646 17.0925 8.84364 16.0386 8.68494C15.4951 8.59678 14.9425 8.58037 14.3948 8.63612L12.0179 6.25925C12.1079 5.76467 12.0054 5.25439 11.7313 4.83298C11.4572 4.41157 11.0323 4.11095 10.5437 3.99272C10.0551 3.8745 9.53978 3.94763 9.10335 4.19712C8.66693 4.44661 8.34245 4.85357 8.19641 5.3346C7.71593 5.48112 7.3096 5.80571 7.06057 6.24196C6.81155 6.67822 6.73864 7.19314 6.85678 7.68138C6.97492 8.16961 7.27517 8.59424 7.69609 8.86839C8.11702 9.14253 8.62679 9.24545 9.12111 9.1561L11.4977 11.5328C11.472 11.7652 11.4611 11.9989 11.4652 12.2327C11.4886 12.9805 11.6111 13.7219 11.8295 14.4375H9.42432C9.25027 14.4375 9.08335 14.5067 8.96028 14.6297C8.83721 14.7528 8.76807 14.9197 8.76807 15.0938V17.7188C8.76807 17.8928 8.83721 18.0597 8.96028 18.1828C9.08335 18.3059 9.25027 18.375 9.42432 18.375H11.4825L12.2686 23.7205L13.5671 23.5295L12.8091 18.375H37.5395L34.4513 39.375H22.5493V40.6875H35.0181C35.1756 40.6875 35.3278 40.6309 35.447 40.5279C35.5662 40.425 35.6444 40.2826 35.6674 40.1268L38.8661 18.375H40.9243C41.0984 18.375 41.2653 18.3059 41.3884 18.1828C41.5114 18.0597 41.5806 17.8928 41.5806 17.7188V15.0938C41.5806 14.9197 41.5114 14.7528 41.3884 14.6297C41.2653 14.5067 41.0984 14.4375 40.9243 14.4375ZM31.0806 12.4688H30.4243V13.7813H31.0806C32.4993 13.7828 33.88 13.322 35.0135 12.4688H36.3306C36.8525 12.4693 37.353 12.677 37.722 13.046C38.0911 13.4151 38.2987 13.9155 38.2993 14.4375H26.4484C26.4406 13.8057 26.7154 13.0882 27.5386 12.6766L36.2098 8.34096C35.9524 9.51005 35.3037 10.5563 34.3711 11.3068C33.4385 12.0574 32.2777 12.4673 31.0806 12.4688ZM31.0049 4.28506C31.0995 4.19038 31.163 4.06902 31.1867 3.93726C31.2104 3.8055 31.1932 3.66964 31.1375 3.5479C31.0995 3.46419 31.08 3.37321 31.0806 3.28126C31.0806 3.10721 31.1497 2.94029 31.2728 2.81722C31.3959 2.69415 31.5628 2.62501 31.7368 2.62501C31.9109 2.62501 32.0778 2.69415 32.2009 2.81722C32.3239 2.94029 32.3931 3.10721 32.3931 3.28126C32.3931 3.45531 32.4622 3.62223 32.5853 3.7453C32.7084 3.86837 32.8753 3.93751 33.0493 3.93751C33.2234 3.93751 33.3903 4.00665 33.5134 4.12972C33.6364 4.25279 33.7056 4.41971 33.7056 4.59376C33.7056 4.76781 33.6364 4.93473 33.5134 5.0578C33.3903 5.18087 33.2234 5.25001 33.0493 5.25001C32.9574 5.25053 32.8664 5.2311 32.7826 5.19305C32.6609 5.13736 32.525 5.12022 32.3933 5.14394C32.2615 5.16766 32.1402 5.2311 32.0455 5.32575L29.88 7.49118C29.7568 7.27529 29.6056 7.07661 29.4303 6.90028C29.254 6.7249 29.0551 6.57386 28.8388 6.45116L31.0049 4.28506ZM21.0776 9.6845C21.916 8.84617 23.4796 7.99978 24.9686 7.57837C26.5951 7.11814 27.8832 7.20919 28.5022 7.82835C29.0058 8.33189 29.161 9.27592 28.9486 10.5042L26.9515 11.5027C26.3992 11.7659 25.9343 12.1827 25.6125 12.7031C25.2907 13.2236 25.1256 13.8257 25.1369 14.4375H20.4513C20.0177 13.6869 19.844 12.8141 19.9573 11.9546C20.0706 11.0952 20.4644 10.2972 21.0776 9.6845ZM9.77191 7.95075C9.67723 7.8561 9.55587 7.79266 9.42411 7.76895C9.29235 7.74523 9.15649 7.76236 9.03475 7.81805C8.95102 7.8561 8.86003 7.87553 8.76807 7.87501C8.59402 7.87501 8.4271 7.80587 8.30403 7.6828C8.18096 7.55973 8.11182 7.39281 8.11182 7.21876C8.11182 7.04471 8.18096 6.87779 8.30403 6.75472C8.4271 6.63165 8.59402 6.56251 8.76807 6.56251C8.94211 6.56251 9.10903 6.49337 9.2321 6.3703C9.35517 6.24723 9.42431 6.08031 9.42432 5.90626C9.42432 5.73221 9.49346 5.56529 9.61653 5.44222C9.7396 5.31915 9.90652 5.25001 10.0806 5.25001C10.2546 5.25001 10.4215 5.31915 10.5446 5.44222C10.6677 5.56529 10.7368 5.73221 10.7368 5.90626C10.7373 5.99823 10.7179 6.08921 10.6799 6.17294C10.6241 6.29467 10.607 6.43053 10.6307 6.56228C10.6544 6.69404 10.7179 6.81539 10.8125 6.91006L12.9793 9.07681C12.5437 9.32182 12.1834 9.68106 11.937 10.1158L9.77191 7.95075ZM13.3152 10.4533C14.2986 9.46985 16.7876 9.94013 18.8252 10.9878C18.4905 12.1237 18.5496 13.3395 18.9931 14.4375H13.2046C12.5987 12.6388 12.6336 11.1349 13.3152 10.4533ZM40.2681 17.0625H10.0806V15.75H40.2681V17.0625Z" fill="black"/>
<path d="M23.1317 37.4062H25.9431C26.0399 37.6807 26.1963 37.9302 26.4011 38.1369C26.6059 38.3436 26.854 38.5023 27.1275 38.6016C27.401 38.701 27.6932 38.7384 27.9829 38.7113C28.2726 38.6842 28.5527 38.5932 28.803 38.4449C29.0534 38.2965 29.2677 38.0945 29.4306 37.8534C29.5935 37.6123 29.701 37.3381 29.7452 37.0505C29.7894 36.7629 29.7694 36.4691 29.6864 36.1902C29.6035 35.9113 29.4598 35.6542 29.2656 35.4375C29.4596 35.2208 29.6031 34.9638 29.6859 34.6849C29.7687 34.4061 29.7887 34.1124 29.7444 33.8249C29.7001 33.5374 29.5926 33.2634 29.4298 33.0224C29.2669 32.7814 29.0526 32.5795 28.8024 32.4312C28.5522 32.2829 28.2722 32.192 27.9826 32.1648C27.693 32.1377 27.401 32.1751 27.1275 32.2743C26.8541 32.3735 26.6061 32.5321 26.4013 32.7386C26.1965 32.9452 26.04 33.1945 25.9431 33.4688H23.1317C22.6242 32.8004 21.8612 32.1715 20.8678 31.6164C19.3145 30.7484 17.3987 30.1875 15.9868 30.1875C15.8517 30.1875 15.7181 30.1943 15.5855 30.2044L16.29 29.4999C16.7846 29.5899 17.2949 29.4873 17.7163 29.2133C18.1377 28.9392 18.4384 28.5143 18.5566 28.0257C18.6748 27.5371 18.6017 27.0217 18.3522 26.5853C18.1027 26.1489 17.6958 25.8244 17.2147 25.6784C17.0682 25.1979 16.7436 24.7915 16.3074 24.5425C15.8711 24.2935 15.3562 24.2205 14.868 24.3387C14.3797 24.4568 13.9551 24.7571 13.6809 25.178C13.4068 25.5989 13.3039 26.1087 13.3932 26.603L11.0159 28.9804C10.2059 28.8871 9.25643 28.9867 8.20498 29.2842C6.49291 29.7687 4.74157 30.7269 3.74326 31.7252C2.7598 32.71 2.20762 34.045 2.2081 35.4368C2.20858 36.8285 2.76166 38.1631 3.74579 39.1473C4.72992 40.1314 6.06455 40.6845 7.45632 40.685C8.84808 40.6854 10.1831 40.1333 11.1679 39.1498C11.3686 38.9466 11.5561 38.7308 11.7292 38.5036C12.2148 39.1792 12.8542 39.7296 13.5945 40.1093C14.3348 40.4891 15.1548 40.6872 15.9868 40.6875C17.3987 40.6875 19.3145 40.1266 20.8678 39.2586C21.8612 38.7035 22.6242 38.0746 23.1317 37.4062ZM26.4868 34.7813C26.6609 34.7812 26.8278 34.7121 26.9509 34.589C27.0739 34.466 27.1431 34.299 27.1431 34.125C27.1431 33.9952 27.1816 33.8683 27.2537 33.7604C27.3258 33.6525 27.4283 33.5684 27.5482 33.5187C27.6681 33.469 27.8001 33.456 27.9274 33.4814C28.0547 33.5067 28.1716 33.5692 28.2634 33.661C28.3552 33.7527 28.4177 33.8697 28.443 33.997C28.4683 34.1243 28.4553 34.2562 28.4056 34.3761C28.356 34.4961 28.2718 34.5985 28.1639 34.6707C28.056 34.7428 27.9291 34.7813 27.7993 34.7813C27.6253 34.7813 27.4584 34.8504 27.3353 34.9735C27.2122 35.0965 27.1431 35.2635 27.1431 35.4375C27.1431 35.6115 27.2122 35.7785 27.3353 35.9015C27.4584 36.0246 27.6253 36.0937 27.7993 36.0937C27.9291 36.0937 28.056 36.1322 28.1639 36.2043C28.2718 36.2765 28.356 36.379 28.4056 36.4989C28.4553 36.6188 28.4683 36.7507 28.443 36.878C28.4177 37.0053 28.3552 37.1223 28.2634 37.214C28.1716 37.3058 28.0547 37.3683 27.9274 37.3936C27.8001 37.419 27.6681 37.406 27.5482 37.3563C27.4283 37.3066 27.3258 37.2225 27.2537 37.1146C27.1816 37.0067 27.1431 36.8798 27.1431 36.75C27.1431 36.576 27.0739 36.409 26.9509 36.286C26.8278 36.1629 26.6609 36.0938 26.4868 36.0937H23.7821C23.8884 35.6627 23.8884 35.2123 23.7821 34.7813H26.4868ZM14.5986 27.2538C14.6933 27.1591 14.7567 27.0378 14.7804 26.906C14.8041 26.7742 14.787 26.6384 14.7313 26.5166C14.6932 26.4329 14.6738 26.342 14.6743 26.25C14.6743 26.076 14.7435 25.909 14.8665 25.786C14.9896 25.6629 15.1565 25.5938 15.3306 25.5938C15.5046 25.5938 15.6715 25.6629 15.7946 25.786C15.9177 25.909 15.9868 26.076 15.9868 26.25C15.9868 26.4241 16.056 26.591 16.179 26.714C16.3021 26.8371 16.469 26.9063 16.6431 26.9063C16.8171 26.9063 16.984 26.9754 17.1071 27.0985C17.2302 27.2215 17.2993 27.3885 17.2993 27.5625C17.2993 27.7366 17.2302 27.9035 17.1071 28.0265C16.984 28.1496 16.8171 28.2188 16.6431 28.2188C16.5511 28.2193 16.4602 28.1999 16.3765 28.1618C16.2547 28.1061 16.1188 28.0889 15.9871 28.1127C15.8553 28.1364 15.7339 28.1998 15.6392 28.2945L13.4735 30.4602C13.2277 30.0252 12.8678 29.6655 12.4325 29.4199L14.5986 27.2538ZM10.2397 38.2218C9.87414 38.5875 9.44006 38.8776 8.96232 39.0755C8.48457 39.2735 7.97252 39.3754 7.45539 39.3754C6.93826 39.3755 6.42618 39.2736 5.94841 39.0757C5.47064 38.8778 5.03653 38.5878 4.67087 38.2221C4.30521 37.8564 4.01516 37.4223 3.81729 36.9446C3.61942 36.4668 3.5176 35.9547 3.51765 35.4376C3.5177 34.9204 3.61961 34.4084 3.81757 33.9307C4.01554 33.4529 4.30567 33.0188 4.67139 32.6532C5.50973 31.8149 7.07337 30.9685 8.56235 30.5471C10.1889 30.0869 11.4769 30.178 12.0959 30.7971C12.2889 30.9985 12.4294 31.2443 12.5049 31.5129C11.7206 32.2067 11.1622 33.1196 10.9016 34.1338C10.6411 35.148 10.6904 36.217 11.0431 37.203C10.8104 37.5688 10.5412 37.9101 10.2397 38.2218ZM20.2275 38.1129C18.8766 38.8678 17.1724 39.375 15.9868 39.375C14.9425 39.375 13.941 38.9602 13.2026 38.2217C12.4642 37.4833 12.0493 36.4818 12.0493 35.4375C12.0493 34.3932 12.4642 33.3917 13.2026 32.6533C13.941 31.9148 14.9425 31.5 15.9868 31.5C17.1724 31.5 18.8766 32.0072 20.2275 32.7621C21.7031 33.5867 22.5493 34.5619 22.5493 35.4375C22.5493 36.3131 21.7031 37.2883 20.2275 38.1129Z" fill="black"/>
</svg>
