<svg width="16" height="16" viewBox="0 0 16 16" fill="none" xmlns="http://www.w3.org/2000/svg">
<path d="M14.7656 6.4375H10.7656C10.6969 6.4375 10.6406 6.49375 10.6406 6.5625V7.3125C10.6406 7.38125 10.6969 7.4375 10.7656 7.4375H14.7656C14.8344 7.4375 14.8906 7.38125 14.8906 7.3125V6.5625C14.8906 6.49375 14.8344 6.4375 14.7656 6.4375ZM12.6719 8.5625H10.7656C10.6969 8.5625 10.6406 8.61875 10.6406 8.6875V9.4375C10.6406 9.50625 10.6969 9.5625 10.7656 9.5625H12.6719C12.7406 9.5625 12.7969 9.50625 12.7969 9.4375V8.6875C12.7969 8.61875 12.7406 8.5625 12.6719 8.5625ZM7.45781 5.03906H6.78125C6.68437 5.03906 6.60625 5.11719 6.60625 5.21406V9.08906C6.60625 9.14531 6.63281 9.19688 6.67812 9.22969L9.00468 10.9266C9.08281 10.9828 9.19218 10.9672 9.24844 10.8891L9.65 10.3406V10.3391C9.70625 10.2609 9.68906 10.1516 9.61093 10.0953L7.63125 8.66406V5.21406C7.63281 5.11719 7.55312 5.03906 7.45781 5.03906Z" fill="#A4A4A4"/>
<path d="M12.575 10.5297H11.6719C11.5844 10.5297 11.5016 10.575 11.4547 10.65C11.2563 10.9641 11.025 11.2547 10.7594 11.5203C10.3016 11.9781 9.76875 12.3375 9.17657 12.5875C8.5625 12.8469 7.91094 12.9781 7.23907 12.9781C6.56563 12.9781 5.91407 12.8469 5.30157 12.5875C4.70938 12.3375 4.17657 11.9781 3.71875 11.5203C3.26094 11.0625 2.90157 10.5297 2.65157 9.93751C2.39219 9.32501 2.26094 8.67345 2.26094 8.00001C2.26094 7.32658 2.39219 6.67658 2.65157 6.06251C2.90157 5.47033 3.26094 4.93751 3.71875 4.4797C4.17657 4.02189 4.70938 3.66251 5.30157 3.41251C5.91407 3.15314 6.56719 3.02189 7.23907 3.02189C7.9125 3.02189 8.56406 3.15314 9.17657 3.41251C9.76875 3.66251 10.3016 4.02189 10.7594 4.4797C11.025 4.74533 11.2563 5.03595 11.4547 5.35001C11.5016 5.42501 11.5844 5.47033 11.6719 5.47033H12.575C12.6828 5.47033 12.7516 5.35783 12.7031 5.26251C11.6844 3.23595 9.61875 1.91876 7.3125 1.8922C3.93594 1.85001 1.13125 4.61408 1.125 7.98751C1.11875 11.3672 3.85782 14.1094 7.2375 14.1094C9.57344 14.1094 11.6734 12.7875 12.7031 10.7375C12.7516 10.6422 12.6813 10.5297 12.575 10.5297Z" fill="#A4A4A4"/>
</svg>
