<svg width="20" height="20" viewBox="0 0 20 20" fill="none" xmlns="http://www.w3.org/2000/svg">
<path d="M10 20C8.64583 20 7.35026 19.7363 6.11328 19.209C4.8763 18.6816 3.81185 17.972 2.91992 17.0801C2.02799 16.1882 1.31836 15.1237 0.791016 13.8867C0.263672 12.6497 0 11.3542 0 10C0 8.64583 0.263672 7.35026 0.791016 6.11328C1.31836 4.8763 2.02799 3.81185 2.91992 2.91992C3.81185 2.02799 4.8763 1.31836 6.11328 0.791016C7.35026 0.263672 8.64583 0 10 0C11.3542 0 12.6497 0.263672 13.8867 0.791016C15.1237 1.31836 16.1882 2.02799 17.0801 2.91992C17.972 3.81185 18.6816 4.8763 19.209 6.11328C19.7363 7.35026 20 8.64583 20 10C20 11.3542 19.7363 12.6497 19.209 13.8867C18.6816 15.1237 17.972 16.1882 17.0801 17.0801C16.1882 17.972 15.1237 18.6816 13.8867 19.209C12.6497 19.7363 11.3542 20 10 20ZM10 1.25C8.8151 1.25 7.68229 1.48112 6.60156 1.94336C5.52083 2.4056 4.58984 3.02734 3.80859 3.80859C3.02734 4.58984 2.4056 5.52083 1.94336 6.60156C1.48112 7.68229 1.25 8.8151 1.25 10C1.25 11.1849 1.48112 12.3177 1.94336 13.3984C2.4056 14.4792 3.02734 15.4102 3.80859 16.1914C4.58984 16.9727 5.52083 17.5944 6.60156 18.0566C7.68229 18.5189 8.8151 18.75 10 18.75C11.1849 18.75 12.3177 18.5189 13.3984 18.0566C14.4792 17.5944 15.4102 16.9727 16.1914 16.1914C16.9727 15.4102 17.5944 14.4792 18.0566 13.3984C18.5189 12.3177 18.75 11.1849 18.75 10C18.75 8.8151 18.5189 7.68229 18.0566 6.60156C17.5944 5.52083 16.9727 4.58984 16.1914 3.80859C15.4102 3.02734 14.4792 2.4056 13.3984 1.94336C12.3177 1.48112 11.1849 1.25 10 1.25ZM13.75 15C13.0599 15 12.4707 14.7559 11.9824 14.2676C11.4941 13.7793 11.25 13.1901 11.25 12.5C11.25 11.8099 11.4941 11.2207 11.9824 10.7324C12.4707 10.2441 13.0599 10 13.75 10C14.4401 10 15.0293 10.2441 15.5176 10.7324C16.0059 11.2207 16.25 11.8099 16.25 12.5C16.25 13.1901 16.0059 13.7793 15.5176 14.2676C15.0293 14.7559 14.4401 15 13.75 15ZM10 8.75C9.3099 8.75 8.7207 8.50586 8.23242 8.01758C7.74414 7.5293 7.5 6.9401 7.5 6.25C7.5 5.5599 7.74414 4.9707 8.23242 4.48242C8.7207 3.99414 9.3099 3.75 10 3.75C10.6901 3.75 11.2793 3.99414 11.7676 4.48242C12.2559 4.9707 12.5 5.5599 12.5 6.25C12.5 6.9401 12.2559 7.5293 11.7676 8.01758C11.2793 8.50586 10.6901 8.75 10 8.75ZM8.75 12.5C8.75 13.1901 8.50586 13.7793 8.01758 14.2676C7.5293 14.7559 6.9401 15 6.25 15C5.5599 15 4.9707 14.7559 4.48242 14.2676C3.99414 13.7793 3.75 13.1901 3.75 12.5C3.75 11.8099 3.99414 11.2207 4.48242 10.7324C4.9707 10.2441 5.5599 10 6.25 10C6.9401 10 7.5293 10.2441 8.01758 10.7324C8.50586 11.2207 8.75 11.8099 8.75 12.5Z" fill="#333333"/>
</svg>
