<svg width="43" height="42" viewBox="0 0 43 42" fill="none" xmlns="http://www.w3.org/2000/svg">
<g clip-path="url(#clip0_9_96)">
<path d="M16.5121 31.7461C16.1724 31.7461 15.8969 31.4706 15.8969 31.1309V30.1465C15.8969 29.8067 16.1724 29.5312 16.5121 29.5312C16.8519 29.5312 17.1274 29.8067 17.1274 30.1465V31.1309C17.1274 31.4706 16.8519 31.7461 16.5121 31.7461Z" fill="black"/>
<path d="M21.8931 32.3864C21.1717 32.3864 20.4855 32.0739 20.0107 31.5291C19.7875 31.2729 19.8141 30.8843 20.0703 30.6611C20.3265 30.4378 20.7151 30.4645 20.9384 30.7207C21.1794 30.9974 21.5274 31.156 21.8932 31.156C22.2589 31.156 22.607 30.9974 22.848 30.7207C23.0712 30.4645 23.4598 30.4379 23.7161 30.6611C23.9722 30.8843 23.9989 31.2729 23.7757 31.5291C23.3008 32.0739 22.6146 32.3864 21.8931 32.3864Z" fill="black"/>
<path d="M28.6048 31.7186C28.265 31.7186 27.9896 31.4431 27.9896 31.1034C27.9896 30.8136 27.7538 30.5779 27.4641 30.5779C27.1744 30.5779 26.9386 30.8136 26.9386 31.1034C26.9386 31.4431 26.6632 31.7186 26.3234 31.7186C25.9835 31.7186 25.7081 31.4431 25.7081 31.1034C25.7081 30.1352 26.4959 29.3474 27.4641 29.3474C28.4323 29.3474 29.2201 30.1352 29.2201 31.1034C29.2201 31.4431 28.9447 31.7186 28.6048 31.7186Z" fill="black"/>
<path d="M38.2996 16.0949H36.6619L38.8378 7.97461C39.0505 7.18095 38.9413 6.35193 38.5305 5.6403C38.1196 4.92867 37.4562 4.41974 36.6625 4.20703C35.9019 4.00318 35.1363 4.09727 34.4884 4.42056C34.6277 3.61484 34.4465 2.80264 33.9773 2.13251C33.506 1.45944 32.8008 1.01015 31.9916 0.867492C31.1822 0.724838 30.366 0.905801 29.693 1.37708C29.1132 1.78306 28.7 2.36294 28.5052 3.03306C28.0807 2.73906 27.5772 2.54735 27.0269 2.4992C26.273 2.43333 25.5493 2.65006 24.9689 3.06571C24.9633 1.37429 23.5857 0 21.8931 0C20.1988 0 18.8202 1.37691 18.817 3.07047C18.2377 2.65572 17.5158 2.43899 16.7642 2.50371C16.7625 2.50379 16.7607 2.50396 16.759 2.50412C16.2094 2.55219 15.7064 2.74349 15.2822 3.037C15.0879 2.36516 14.6742 1.78388 14.0932 1.37708C13.42 0.905801 12.6038 0.724838 11.7946 0.867492C10.9853 1.01015 10.2802 1.45944 9.80882 2.13251C9.33877 2.80395 9.15764 3.61779 9.29833 4.42491C8.64872 4.09998 7.88196 4.004 7.12365 4.20703C6.32999 4.41974 5.66659 4.92875 5.25569 5.6403C4.84487 6.35193 4.73577 7.18095 4.9484 7.97461L7.12423 16.0949H5.48661C3.79035 16.0949 2.4104 17.4749 2.4104 19.1711C2.4104 20.8674 3.79035 22.2473 5.48661 22.2473H6.35542L8.8684 39.3699C9.00072 40.2714 9.52129 41.0629 10.2968 41.5413C10.7887 41.8447 11.347 42 11.9104 42C12.2353 42 12.5618 41.9483 12.8782 41.8436L18.9942 39.8202C20.8636 39.2016 22.9224 39.2015 24.7919 39.8202L30.908 41.8436C31.7731 42.1299 32.7139 42.0197 33.4893 41.5413C34.2649 41.0629 34.7855 40.2714 34.9179 39.3698L37.4308 22.2473H38.2996C39.9958 22.2473 41.3758 20.8673 41.3758 19.171C41.3758 17.4748 39.9957 16.0949 38.2996 16.0949ZM36.3441 5.3956C36.8204 5.52316 37.2183 5.82856 37.4649 6.25554C37.7114 6.68252 37.7769 7.17988 37.6493 7.65608L35.3881 16.0948H32.4303L34.0933 6.66324C34.0947 6.65906 34.0965 6.6552 34.0977 6.65094C34.3845 5.68632 35.3713 5.13457 36.3441 5.3956ZM30.3988 2.38501C30.8026 2.10224 31.2925 1.99371 31.7779 2.07927C32.2635 2.16483 32.6866 2.43439 32.9693 2.83824C33.2521 3.24208 33.3607 3.7319 33.2752 4.21737L31.1671 16.1731C30.3642 16.286 29.5856 16.5197 28.8585 16.8631L29.8236 5.83168C29.8738 5.25745 29.7617 4.70587 29.526 4.2218L29.6398 3.57628C29.7254 3.0909 29.9949 2.66777 30.3988 2.38501ZM26.9199 3.72501C27.9336 3.81368 28.6864 4.71071 28.5977 5.72455L27.5554 17.6375C27.1364 17.9436 26.7453 18.2913 26.3901 18.6784C26.0077 19.0952 25.5299 19.5438 24.9692 19.933V5.11693C25.1863 4.24239 26.0149 3.64552 26.9199 3.72501ZM21.8931 1.23049C22.9108 1.23049 23.7388 2.05844 23.7388 3.07621V20.6054C23.1752 20.8328 22.5578 20.9745 21.8931 20.9745C21.2284 20.9745 20.611 20.8328 20.0474 20.6054V3.07621C20.0474 2.05844 20.8753 1.23049 21.8931 1.23049ZM10.8167 2.83832C11.0995 2.43447 11.5226 2.16492 12.0082 2.07936C12.4937 1.99363 12.9835 2.10233 13.3873 2.38509C13.7912 2.66786 14.0607 3.09098 14.1463 3.57645L14.2607 4.22565C14.0247 4.70989 13.9125 5.2618 13.9627 5.83644L14.1619 8.11325C14.1899 8.4335 14.4585 8.67492 14.7741 8.67492C14.792 8.67492 14.8102 8.6741 14.8285 8.67254C15.1669 8.64293 15.4174 8.3445 15.3878 8.00603L15.1886 5.72922C15.1 4.71678 15.8505 3.8209 16.8623 3.73034C16.8638 3.73026 16.8652 3.73009 16.8668 3.73001C17.7687 3.6506 18.5994 4.24706 18.8168 5.12046V19.933C18.256 19.5438 17.7783 19.0952 17.3958 18.6784C17.0406 18.2913 16.6496 17.9435 16.2305 17.6375L15.6032 10.4669C15.5736 10.1284 15.2746 9.87867 14.9367 9.90762C14.5982 9.93724 14.3478 10.2357 14.3774 10.5741L14.9276 16.863C14.2005 16.5196 13.4219 16.286 12.6191 16.1731L10.511 4.21745C10.4254 3.7319 10.534 3.24208 10.8167 2.83832ZM6.13688 7.65616C6.00924 7.17997 6.0747 6.6826 6.32129 6.25562C6.5678 5.82865 6.96574 5.52324 7.44202 5.39568C8.40311 5.13802 9.38709 5.68 9.68191 6.62945C9.68462 6.63822 9.68823 6.64651 9.69135 6.65512L11.3559 16.0949H8.39802L6.13688 7.65616ZM38.2996 21.0169H32.2765C31.4172 21.0169 30.5937 21.3773 30.017 22.0059C29.1887 22.9087 28.2864 23.6719 27.3352 24.2744C27.0482 24.4561 26.9628 24.8363 27.1446 25.1233C27.3264 25.4103 27.7065 25.4957 27.9936 25.314C29.0365 24.6535 30.0223 23.8204 30.9238 22.8378C31.268 22.4626 31.7611 22.2474 32.2766 22.2474H36.1871L33.7004 39.1913C33.621 39.7322 33.3086 40.2071 32.8433 40.4941C32.3781 40.7812 31.8137 40.8473 31.2945 40.6755L25.1784 38.652C23.0598 37.9511 20.7264 37.9511 18.6077 38.652L12.4917 40.6755C11.9725 40.8473 11.4081 40.7811 10.9428 40.4941C10.4775 40.207 10.1652 39.7322 10.0858 39.1913L7.59903 22.2473H11.5096C12.0251 22.2473 12.5181 22.4625 12.8623 22.8376C14.6575 24.7944 17.6815 27.127 21.893 27.127C23.1839 27.127 24.4533 26.9037 25.6661 26.4636C25.9855 26.3476 26.1504 25.9947 26.0345 25.6753C25.9187 25.356 25.5657 25.1908 25.2463 25.3069C24.1685 25.6981 23.0402 25.8965 21.893 25.8965C18.1286 25.8965 15.3974 23.7807 13.769 22.0058C13.1924 21.3772 12.3689 21.0168 11.5096 21.0168H5.48661C4.46884 21.0168 3.64089 20.1888 3.64089 19.171C3.64089 18.1533 4.46884 17.3253 5.48661 17.3253H11.5097C13.4004 17.3253 15.2153 18.1217 16.4892 19.5102C17.6171 20.7395 19.4702 22.205 21.8931 22.205C24.3161 22.205 26.1691 20.7396 27.2969 19.5103C28.5709 18.1217 30.3858 17.3253 32.2765 17.3253H38.2996C39.3173 17.3253 40.1453 18.1533 40.1453 19.171C40.1453 20.1888 39.3173 21.0169 38.2996 21.0169Z" fill="black"/>
</g>
<defs>
<clipPath id="clip0_9_96">
<rect width="42" height="42" fill="white" transform="translate(0.893066)"/>
</clipPath>
</defs>
</svg>
