<svg width="15" height="15" viewBox="0 0 15 15" fill="none" xmlns="http://www.w3.org/2000/svg">
<path d="M7.36235 5.51742C6.09913 5.51742 5.06824 6.54831 5.06824 7.81154C5.06824 9.07476 6.09913 10.1056 7.36235 10.1056C8.62558 10.1056 9.65647 9.07476 9.65647 7.81154C9.65647 6.54831 8.62558 5.51742 7.36235 5.51742ZM14.243 7.81154C14.243 6.86154 14.2516 5.92014 14.1982 4.97186C14.1449 3.87041 13.8936 2.89288 13.0882 2.08744C12.281 1.28029 11.3052 1.03074 10.2038 0.977387C9.25375 0.924036 8.31235 0.932641 7.36408 0.932641C6.41408 0.932641 5.47268 0.924036 4.5244 0.977387C3.42295 1.03074 2.44542 1.28201 1.63998 2.08744C0.832826 2.8946 0.583278 3.87041 0.529927 4.97186C0.476576 5.92186 0.485181 6.86326 0.485181 7.81154C0.485181 8.75982 0.476576 9.70293 0.529927 10.6512C0.583278 11.7527 0.834547 12.7302 1.63998 13.5356C2.44714 14.3428 3.42295 14.5923 4.5244 14.6457C5.4744 14.699 6.4158 14.6904 7.36408 14.6904C8.31408 14.6904 9.25547 14.699 10.2038 14.6457C11.3052 14.5923 12.2827 14.3411 13.0882 13.5356C13.8953 12.7285 14.1449 11.7527 14.1982 10.6512C14.2533 9.70293 14.243 8.76154 14.243 7.81154ZM7.36235 11.3413C5.409 11.3413 3.83255 9.76489 3.83255 7.81154C3.83255 5.85818 5.409 4.28173 7.36235 4.28173C9.31571 4.28173 10.8922 5.85818 10.8922 7.81154C10.8922 9.76489 9.31571 11.3413 7.36235 11.3413ZM11.0367 4.96154C10.5807 4.96154 10.2124 4.59324 10.2124 4.13717C10.2124 3.6811 10.5807 3.3128 11.0367 3.3128C11.4928 3.3128 11.8611 3.6811 11.8611 4.13717C11.8612 4.24547 11.84 4.35272 11.7986 4.4528C11.7572 4.55288 11.6965 4.64381 11.6199 4.72039C11.5434 4.79696 11.4524 4.85768 11.3524 4.89906C11.2523 4.94044 11.145 4.96167 11.0367 4.96154Z" fill="white"/>
</svg>
