<svg width="15" height="15" viewBox="0 0 15 15" fill="none" xmlns="http://www.w3.org/2000/svg">
<path d="M3.29779 14.4565H0.300641V4.80473H3.29779V14.4565ZM1.79741 3.48815C0.839146 3.48815 0.0615921 2.69408 0.0615921 1.73582C0.0615921 1.27545 0.244472 0.833937 0.570001 0.508409C0.895529 0.18288 1.33704 0 1.79741 0C2.25777 0 2.69929 0.18288 3.02481 0.508409C3.35034 0.833937 3.53322 1.27545 3.53322 1.73582C3.53322 2.69408 2.75567 3.48815 1.79741 3.48815ZM14.515 14.4565H11.5246V9.75815C11.5246 8.63829 11.5019 7.20245 9.96637 7.20245C8.40817 7.20245 8.16912 8.41886 8.16912 9.67761V14.4565H5.17507V4.80473H8.04934V6.1213H8.09116C8.49129 5.36285 9.46866 4.56258 10.9267 4.56258C13.96 4.56258 14.5176 6.56016 14.5176 9.15459V14.4565H14.515Z" fill="white"/>
</svg>
