<svg width="20" height="20" viewBox="0 0 20 20" fill="none" xmlns="http://www.w3.org/2000/svg">
<path d="M3.4375 2.8125V15.1562C3.4375 15.3635 3.35519 15.5622 3.20868 15.7087C3.06216 15.8552 2.86345 15.9375 2.65625 15.9375C2.44905 15.9375 2.25034 15.8552 2.10382 15.7087C1.95731 15.5622 1.875 15.3635 1.875 15.1562V5.9375H0.625V15.1562C0.62561 15.6948 0.839812 16.2111 1.22061 16.5919C1.60141 16.9727 2.11772 17.1869 2.65625 17.1875H17.3438C17.8823 17.1869 18.3986 16.9727 18.7794 16.5919C19.1602 16.2111 19.3744 15.6948 19.375 15.1562V2.8125H3.4375ZM18.125 15.1562C18.1248 15.3634 18.0424 15.562 17.8959 15.7084C17.7495 15.8549 17.5509 15.9373 17.3438 15.9375H4.53125C4.63467 15.69 4.68779 15.4245 4.6875 15.1562V4.0625H18.125V15.1562Z" fill="#333333"/>
<path d="M11.5625 5.3125H5.9375V11.5625H11.5625V5.3125ZM10.3125 10.3125H7.1875V6.5625H10.3125V10.3125Z" fill="#333333"/>
<path d="M12.8125 5.3125H16.875V6.5625H12.8125V5.3125Z" fill="#333333"/>
<path d="M12.8125 7.8125H16.875V9.0625H12.8125V7.8125Z" fill="#333333"/>
<path d="M12.8125 10.3125H16.875V11.5625H12.8125V10.3125Z" fill="#333333"/>
</svg>
