<svg width="42" height="14" viewBox="0 0 42 14" fill="none" xmlns="http://www.w3.org/2000/svg">
<path fill-rule="evenodd" clip-rule="evenodd" d="M6.30975 13.25C7.96736 13.25 9.55707 12.5915 10.7292 11.4194C11.9013 10.2473 12.5598 8.6576 12.5598 7C12.5598 5.3424 11.9013 3.75268 10.7292 2.58058C9.55707 1.40848 7.96736 0.75 6.30975 0.75C4.65215 0.75 3.06244 1.40848 1.89034 2.58058C0.718234 3.75268 0.0597534 5.3424 0.0597534 7C0.0597534 8.6576 0.718234 10.2473 1.89034 11.4194C3.06244 12.5915 4.65215 13.25 6.30975 13.25ZM6.30975 9.08333C6.86229 9.08333 7.39219 8.86384 7.78289 8.47314C8.17359 8.08244 8.39309 7.55253 8.39309 7C8.39309 6.44747 8.17359 5.91756 7.78289 5.52686C7.39219 5.13616 6.86229 4.91667 6.30975 4.91667C5.75722 4.91667 5.22732 5.13616 4.83662 5.52686C4.44591 5.91756 4.22642 6.44747 4.22642 7C4.22642 7.55253 4.44591 8.08244 4.83662 8.47314C5.22732 8.86384 5.75722 9.08333 6.30975 9.08333Z" fill="black"/>
<path fill-rule="evenodd" clip-rule="evenodd" d="M20.8931 13.25C22.5507 13.25 24.1404 12.5915 25.3125 11.4194C26.4846 10.2473 27.1431 8.6576 27.1431 7C27.1431 5.3424 26.4846 3.75268 25.3125 2.58058C24.1404 1.40848 22.5507 0.75 20.8931 0.75C19.2355 0.75 17.6458 1.40848 16.4736 2.58058C15.3015 3.75268 14.6431 5.3424 14.6431 7C14.6431 8.6576 15.3015 10.2473 16.4736 11.4194C17.6458 12.5915 19.2355 13.25 20.8931 13.25ZM20.8931 9.08333C21.4456 9.08333 21.9755 8.86384 22.3662 8.47314C22.7569 8.08244 22.9764 7.55253 22.9764 7C22.9764 6.44747 22.7569 5.91756 22.3662 5.52686C21.9755 5.13616 21.4456 4.91667 20.8931 4.91667C20.3405 4.91667 19.8106 5.13616 19.4199 5.52686C19.0292 5.91756 18.8097 6.44747 18.8097 7C18.8097 7.55253 19.0292 8.08244 19.4199 8.47314C19.8106 8.86384 20.3405 9.08333 20.8931 9.08333Z" fill="black"/>
<path fill-rule="evenodd" clip-rule="evenodd" d="M41.7264 7C41.7264 8.6576 41.068 10.2473 39.8959 11.4194C38.7238 12.5915 37.134 13.25 35.4764 13.25C33.8188 13.25 32.2291 12.5915 31.057 11.4194C29.8849 10.2473 29.2264 8.6576 29.2264 7C29.2264 5.3424 29.8849 3.75268 31.057 2.58058C32.2291 1.40848 33.8188 0.75 35.4764 0.75C37.134 0.75 38.7238 1.40848 39.8959 2.58058C41.068 3.75268 41.7264 5.3424 41.7264 7ZM37.5598 7C37.5598 7.55253 37.3403 8.08244 36.9496 8.47314C36.5589 8.86384 36.029 9.08333 35.4764 9.08333C34.9239 9.08333 34.394 8.86384 34.0033 8.47314C33.6126 8.08244 33.3931 7.55253 33.3931 7C33.3931 6.44747 33.6126 5.91756 34.0033 5.52686C34.394 5.13616 34.9239 4.91667 35.4764 4.91667C36.029 4.91667 36.5589 5.13616 36.9496 5.52686C37.3403 5.91756 37.5598 6.44747 37.5598 7Z" fill="black"/>
</svg>
