<svg width="43" height="42" viewBox="0 0 43 42" fill="none" xmlns="http://www.w3.org/2000/svg">
<g clip-path="url(#clip0_4_361)">
<path d="M37.6622 16.6003C37.5163 16.5273 37.3473 16.5152 37.1925 16.5669L20.893 22L26.3262 5.70061C26.3778 5.54574 26.3657 5.37683 26.2928 5.23082C26.2198 5.08489 26.0918 4.9739 25.937 4.9223C23.9919 4.27417 21.9675 3.94556 19.9203 3.94556C14.8379 3.94556 10.0598 5.92472 6.466 9.5185C2.87223 13.1123 0.893066 17.8904 0.893066 22.9728C0.893066 28.0552 2.87223 32.8333 6.466 36.427C10.0598 40.0208 14.8379 42.0001 19.9203 42.0001C25.0027 42.0001 29.7808 40.0209 33.3746 36.427C36.9684 32.8333 38.9475 28.0551 38.9475 22.9728C38.9475 20.9255 38.6189 18.9012 37.9707 16.9561C37.9191 16.8012 37.8081 16.6733 37.6622 16.6003ZM32.5045 35.557C29.1431 38.9184 24.674 40.7696 19.9203 40.7696C15.1666 40.7696 10.6975 38.9184 7.3361 35.557C3.97472 32.1956 2.12353 27.7265 2.12353 22.9728C2.12353 18.2191 3.97472 13.75 7.33602 10.3886C10.6974 7.02722 15.1665 5.17602 19.9202 5.17602C21.6299 5.17602 23.3227 5.42113 24.9609 5.9052L24.5178 7.23434C23.023 6.79745 21.4794 6.57588 19.9202 6.57588C10.8789 6.57588 3.52331 13.9315 3.52331 22.9728C3.52331 32.0141 10.8789 39.3697 19.9202 39.3697C24.9227 39.3697 29.5882 37.1287 32.7207 33.221C32.9332 32.9559 32.8905 32.5687 32.6254 32.3563C32.3603 32.1436 31.973 32.1864 31.7606 32.4515C28.863 36.0662 24.5473 38.1393 19.9202 38.1393C11.5574 38.1393 4.75377 31.3356 4.75377 22.9728C4.75377 14.61 11.5574 7.80635 19.9202 7.80635C21.347 7.80635 22.7597 8.00658 24.1286 8.40222L19.3366 22.7782C19.2629 22.9993 19.3204 23.243 19.4852 23.4078C19.65 23.5726 19.8937 23.6302 20.1148 23.5565L34.4908 18.7645C34.8864 20.1334 35.0867 21.5461 35.0867 22.9728C35.0867 25.545 34.4312 28.0857 33.1913 30.3203C33.0265 30.6174 33.1337 30.992 33.4308 31.1568C33.5254 31.2093 33.6278 31.2342 33.7287 31.2342C33.945 31.2342 34.1549 31.1198 34.2673 30.9173C35.6083 28.5005 36.3171 25.7533 36.3171 22.9727C36.3171 21.4136 36.0956 19.8699 35.6586 18.3751L36.9877 17.932C37.4718 19.5702 37.7169 21.2629 37.7169 22.9727C37.717 27.7265 35.8658 32.1956 32.5045 35.557Z" fill="black"/>
<path d="M42.8614 12.0655C40.9781 6.41355 36.4795 1.91495 30.8276 0.0316785C30.5053 -0.0756184 30.157 0.0984519 30.0495 0.420835L24.2273 17.8877C24.1536 18.1087 24.2111 18.3525 24.3759 18.5173C24.4932 18.6346 24.6504 18.6975 24.811 18.6975C24.876 18.6975 24.9417 18.6871 25.0055 18.6659L39.9769 13.6754H39.977C39.9771 13.6754 39.9772 13.6754 39.9772 13.6754L42.4723 12.8436C42.7946 12.7362 42.9688 12.3878 42.8614 12.0655ZM40.1607 12.3171C39.051 9.35789 37.1262 6.80516 34.5654 4.90655C34.2924 4.7041 33.9071 4.76135 33.7048 5.03435C33.5024 5.30727 33.5596 5.69257 33.8326 5.89494C36.1893 7.64229 37.9636 9.98798 38.9925 12.7066L25.7837 17.1094L30.1862 3.90216C30.628 4.06983 31.0638 4.25735 31.4869 4.46514C31.5741 4.50796 31.6666 4.5283 31.7576 4.5283C31.9849 4.5283 32.2034 4.40189 32.3103 4.18418C32.4601 3.87919 32.3342 3.51054 32.0292 3.36075C31.5568 3.12869 31.0699 2.91877 30.5758 2.73305L31.0189 1.4039C35.84 3.20079 39.6923 7.05314 41.4892 11.8744L40.1607 12.3171Z" fill="black"/>
<path d="M16.5901 16.397C16.5901 16.1225 16.5557 15.8495 16.4878 15.5857C16.4029 15.2567 16.0674 15.0587 15.7385 15.1434C15.4095 15.2282 15.2114 15.5636 15.2961 15.8926C15.3383 16.0563 15.3596 16.2259 15.3596 16.3969C15.3596 17.508 14.4556 18.4119 13.3446 18.4119C12.2335 18.4119 11.3295 17.508 11.3295 16.3969C11.3295 15.2859 12.2335 14.3818 13.3446 14.3818C13.516 14.3818 13.6862 14.4033 13.8501 14.4457C14.179 14.5307 14.5147 14.3328 14.5996 14.0037C14.6845 13.6746 14.4866 13.3391 14.1576 13.2542C13.8932 13.186 13.6196 13.1514 13.3446 13.1514C11.555 13.1514 10.099 14.6073 10.099 16.3969C10.099 18.1865 11.555 19.6424 13.3446 19.6424C15.1342 19.6425 16.5901 18.1866 16.5901 16.397Z" fill="black"/>
<path d="M31.7989 11.1365C31.7989 12.201 32.6649 13.0669 33.7292 13.0669C34.7936 13.0669 35.6596 12.2009 35.6596 11.1365C35.6596 10.0722 34.7936 9.20618 33.7292 9.20618C32.6649 9.20618 31.7989 10.0721 31.7989 11.1365ZM33.7293 10.4366C34.1153 10.4366 34.4292 10.7506 34.4292 11.1365C34.4292 11.5224 34.1152 11.8363 33.7293 11.8363C33.3434 11.8363 33.0294 11.5224 33.0294 11.1365C33.0293 10.7506 33.3434 10.4366 33.7293 10.4366Z" fill="black"/>
<path d="M23.8657 28.2756C22.4387 28.2756 21.2778 29.4366 21.2778 30.8636C21.2778 32.2906 22.4387 33.4516 23.8657 33.4516C25.2927 33.4516 26.4536 32.2906 26.4536 30.8636C26.4537 29.4366 25.2927 28.2756 23.8657 28.2756ZM23.8657 32.2211C23.1171 32.2211 22.5082 31.6122 22.5082 30.8636C22.5082 30.1151 23.1171 29.5061 23.8657 29.5061C24.6142 29.5061 25.2231 30.1151 25.2231 30.8636C25.2232 31.6121 24.6142 32.2211 23.8657 32.2211Z" fill="black"/>
<path d="M14.0022 24.9878C12.5752 24.9878 11.4143 26.1488 11.4143 27.5757C11.4143 29.0027 12.5752 30.1637 14.0022 30.1637C15.4292 30.1637 16.5901 29.0027 16.5901 27.5757C16.5901 26.1488 15.4292 24.9878 14.0022 24.9878ZM14.0022 28.9333C13.2537 28.9333 12.6448 28.3243 12.6448 27.5758C12.6448 26.8273 13.2537 26.2183 14.0022 26.2183C14.7507 26.2183 15.3597 26.8273 15.3597 27.5758C15.3597 28.3243 14.7507 28.9333 14.0022 28.9333Z" fill="black"/>
<path d="M31.7142 24.2878C31.7142 23.2233 30.8482 22.3574 29.7839 22.3574C28.7195 22.3574 27.8535 23.2234 27.8535 24.2878C27.8535 25.3521 28.7195 26.2181 29.7839 26.2181C30.8482 26.2181 31.7142 25.3522 31.7142 24.2878ZM29.7838 24.9877C29.3978 24.9877 29.0839 24.6737 29.0839 24.2878C29.0839 23.9019 29.3979 23.5879 29.7838 23.5879C30.1697 23.5879 30.4837 23.9019 30.4837 24.2878C30.4837 24.6737 30.1697 24.9877 29.7838 24.9877Z" fill="black"/>
<path d="M17.9475 32.2209C16.8831 32.2209 16.0172 33.087 16.0172 34.1513C16.0172 35.2157 16.8832 36.0817 17.9475 36.0817C19.0119 36.0817 19.8779 35.2157 19.8779 34.1513C19.8779 33.087 19.012 32.2209 17.9475 32.2209ZM17.9475 34.8512C17.5616 34.8512 17.2477 34.5373 17.2477 34.1513C17.2477 33.7654 17.5617 33.4514 17.9475 33.4514C18.3334 33.4514 18.6474 33.7654 18.6474 34.1513C18.6475 34.5373 18.3335 34.8512 17.9475 34.8512Z" fill="black"/>
<path d="M30.0589 11.2438C29.755 11.0918 29.3854 11.2151 29.2335 11.5189L28.576 12.834C28.424 13.138 28.5472 13.5075 28.8511 13.6595C28.9394 13.7036 29.0333 13.7246 29.1257 13.7246C29.3514 13.7246 29.5687 13.5999 29.6765 13.3843L30.334 12.0692C30.4861 11.7652 30.3628 11.3957 30.0589 11.2438Z" fill="black"/>
<path d="M32.1916 6.75594L31.534 6.09829C31.2937 5.85802 30.9042 5.85802 30.664 6.09829C30.4237 6.33856 30.4237 6.72813 30.664 6.96832L31.3215 7.62597C31.4416 7.74606 31.5991 7.80611 31.7566 7.80611C31.914 7.80611 32.0715 7.74606 32.1916 7.62597C32.4318 7.3857 32.4318 6.99621 32.1916 6.75594Z" fill="black"/>
<path d="M17.0149 11.6868L18.3301 12.3444C18.4184 12.3885 18.5122 12.4094 18.6047 12.4094C18.8304 12.4094 19.0477 12.2848 19.1555 12.0692C19.3075 11.7653 19.1842 11.3958 18.8803 11.2438L17.5652 10.5862C17.2613 10.4342 16.8917 10.5574 16.7398 10.8614C16.5879 11.1654 16.711 11.5348 17.0149 11.6868Z" fill="black"/>
<path d="M21.2355 11.7517C21.5753 11.7517 21.8507 11.4763 21.8507 11.1364V10.4789C21.8507 10.139 21.5753 9.86365 21.2355 9.86365C20.8957 9.86365 20.6203 10.139 20.6203 10.4789V11.1364C20.6203 11.4762 20.8957 11.7517 21.2355 11.7517Z" fill="black"/>
<path d="M7.15133 20.8928L8.46645 21.5503C8.5548 21.5945 8.64864 21.6155 8.74109 21.6155C8.96676 21.6155 9.18406 21.4908 9.29185 21.2752C9.44385 20.9713 9.32064 20.6018 9.01672 20.4498L7.70159 19.7922C7.39767 19.6402 7.02811 19.7634 6.87619 20.0673C6.72419 20.3713 6.8474 20.7409 7.15133 20.8928Z" fill="black"/>
<path d="M11.4142 22.3152V22.9727C11.4142 23.3125 11.6896 23.588 12.0294 23.588C12.3692 23.588 12.6446 23.3125 12.6446 22.9727V22.3152C12.6446 21.9754 12.3692 21.7 12.0294 21.7C11.6896 21.7 11.4142 21.9754 11.4142 22.3152Z" fill="black"/>
<path d="M18.6476 16.3971V17.0547C18.6476 17.3944 18.923 17.6699 19.2628 17.6699C19.6026 17.6699 19.8781 17.3944 19.8781 17.0547V16.3971C19.8781 16.0573 19.6026 15.7819 19.2628 15.7819C18.923 15.7819 18.6476 16.0573 18.6476 16.3971Z" fill="black"/>
<path d="M15.7523 21.2226C15.512 20.9823 15.1225 20.9823 14.8823 21.2226C14.642 21.4628 14.642 21.8524 14.8823 22.0926L15.5399 22.7502C15.6599 22.8702 15.8174 22.9304 15.9749 22.9304C16.1323 22.9304 16.2898 22.8703 16.4099 22.7502C16.6502 22.5099 16.6502 22.1204 16.4099 21.8801L15.7523 21.2226Z" fill="black"/>
<path d="M8.51899 24.5103C8.27872 24.27 7.88916 24.27 7.64897 24.5103L6.99141 25.1678C6.75114 25.4081 6.75114 25.7977 6.99141 26.0379C7.1115 26.158 7.269 26.2181 7.42642 26.2181C7.58384 26.2181 7.74134 26.158 7.86143 26.0379L8.51899 25.3803C8.75934 25.14 8.75934 24.7506 8.51899 24.5103Z" fill="black"/>
<path d="M9.39909 28.2756H8.74153C8.40176 28.2756 8.1263 28.5511 8.1263 28.8909C8.1263 29.2307 8.40176 29.5061 8.74153 29.5061H9.39909C9.73887 29.5061 10.0143 29.2307 10.0143 28.8909C10.0143 28.5511 9.73887 28.2756 9.39909 28.2756Z" fill="black"/>
<path d="M20.1429 25.8255L19.4853 26.4831C19.245 26.7234 19.245 27.1129 19.4853 27.3531C19.6054 27.4733 19.7629 27.5333 19.9203 27.5333C20.0777 27.5333 20.2352 27.4733 20.3553 27.3531L21.0129 26.6955C21.2531 26.4553 21.2531 26.0657 21.0129 25.8255C20.7726 25.5852 20.383 25.5852 20.1429 25.8255Z" fill="black"/>
<path d="M17.9475 29.5907C17.6078 29.5907 17.3323 29.8662 17.3323 30.2059C17.3323 30.5458 17.6078 30.8212 17.9475 30.8212H18.6051C18.9449 30.8212 19.2203 30.5458 19.2203 30.2059C19.2203 29.8662 18.9449 29.5907 18.6051 29.5907H17.9475Z" fill="black"/>
<path d="M13.3446 32.2209C13.0048 32.2209 12.7294 32.4964 12.7294 32.8362V33.4938C12.7294 33.8336 13.0048 34.1091 13.3446 34.1091C13.6844 34.1091 13.9599 33.8336 13.9599 33.4938V32.8362C13.9599 32.4964 13.6844 32.2209 13.3446 32.2209Z" fill="black"/>
<path d="M23.2081 34.8513H22.5505C22.2108 34.8513 21.9353 35.1268 21.9353 35.4666C21.9353 35.8064 22.2108 36.0818 22.5505 36.0818H23.2081C23.5479 36.0818 23.8233 35.8064 23.8233 35.4666C23.8233 35.1269 23.5479 34.8513 23.2081 34.8513Z" fill="black"/>
<path d="M25.1809 26.8758C25.5207 26.8758 25.7961 26.6004 25.7961 26.2606V24.9454C25.7961 24.6057 25.5207 24.3302 25.1809 24.3302C24.8411 24.3302 24.5656 24.6057 24.5656 24.9454V26.2606C24.5656 26.6003 24.841 26.8758 25.1809 26.8758Z" fill="black"/>
<path d="M29.5612 29.1134C29.321 28.8732 28.9314 28.8732 28.6912 29.1134C28.4509 29.3537 28.4509 29.7433 28.6912 29.9835L29.3488 30.6411C29.4689 30.7612 29.6264 30.8212 29.7838 30.8212C29.9412 30.8212 30.0987 30.7612 30.2188 30.6411C30.4591 30.4008 30.4591 30.0113 30.2188 29.7711L29.5612 29.1134Z" fill="black"/>
<path d="M32.4141 26.9604H31.7565C31.4167 26.9604 31.1412 27.2359 31.1412 27.5757C31.1412 27.9155 31.4167 28.1909 31.7565 28.1909H32.4141C32.7539 28.1909 33.0293 27.9155 33.0293 27.5757C33.0293 27.2359 32.7539 26.9604 32.4141 26.9604Z" fill="black"/>
<path d="M33.6869 22.3152V21.6576C33.6869 21.3178 33.4114 21.0424 33.0717 21.0424C32.7319 21.0424 32.4564 21.3178 32.4564 21.6576V22.3152C32.4564 22.6549 32.7319 22.9304 33.0717 22.9304C33.4114 22.9304 33.6869 22.6549 33.6869 22.3152Z" fill="black"/>
</g>
<defs>
<clipPath id="clip0_4_361">
<rect width="42" height="42" fill="white" transform="translate(0.893066)"/>
</clipPath>
</defs>
</svg>
