<svg width="18" height="18" viewBox="0 0 18 18" fill="none" xmlns="http://www.w3.org/2000/svg">
<path d="M13.0333 8.69167C13.3671 8.6958 13.6984 8.63304 14.0075 8.50709C14.3167 8.38114 14.5974 8.19456 14.8333 7.95834L17.1917 5.6C17.3469 5.44387 17.434 5.23266 17.434 5.0125C17.434 4.79235 17.3469 4.58114 17.1917 4.425C17.1142 4.3469 17.022 4.2849 16.9205 4.24259C16.8189 4.20029 16.71 4.1785 16.6 4.1785C16.49 4.1785 16.3811 4.20029 16.2795 4.24259C16.178 4.2849 16.0858 4.3469 16.0083 4.425L13.625 6.775C13.5475 6.85311 13.4554 6.91511 13.3538 6.95741C13.2523 6.99972 13.1433 7.0215 13.0333 7.0215C12.9233 7.0215 12.8144 6.99972 12.7128 6.95741C12.6113 6.91511 12.5191 6.85311 12.4417 6.775L15.3917 3.83334C15.4694 3.75564 15.531 3.6634 15.573 3.56188C15.6151 3.46036 15.6367 3.35155 15.6367 3.24167C15.6367 3.13179 15.6151 3.02298 15.573 2.92146C15.531 2.81994 15.4694 2.7277 15.3917 2.65C15.314 2.5723 15.2217 2.51067 15.1202 2.46862C15.0187 2.42657 14.9099 2.40493 14.8 2.40493C14.6901 2.40493 14.5813 2.42657 14.4798 2.46862C14.3783 2.51067 14.286 2.5723 14.2083 2.65L11.2667 5.6C11.1114 5.44387 11.0243 5.23266 11.0243 5.0125C11.0243 4.79235 11.1114 4.58114 11.2667 4.425L13.625 2.06667C13.7027 1.98897 13.7643 1.89673 13.8064 1.79521C13.8484 1.69369 13.8701 1.58489 13.8701 1.475C13.8701 1.36512 13.8484 1.25631 13.8064 1.1548C13.7643 1.05328 13.7027 0.961035 13.625 0.883336C13.5473 0.805638 13.455 0.744003 13.3535 0.701953C13.252 0.659903 13.1432 0.63826 13.0333 0.63826C12.9234 0.63826 12.8146 0.659903 12.7131 0.701953C12.6116 0.744003 12.5194 0.805638 12.4417 0.883336L10.0833 3.24167C9.61516 3.71042 9.35219 4.34583 9.35219 5.00834C9.35219 5.67084 9.61516 6.30625 10.0833 6.775L8.99999 7.85L2.10832 0.933336L2.02499 0.883336C1.98239 0.846169 1.93468 0.8153 1.88332 0.79167L1.73332 0.733336L1.63332 0.66667H1.40832C1.35864 0.658725 1.30801 0.658725 1.25832 0.66667C1.20787 0.685031 1.1602 0.71027 1.11666 0.74167L0.983323 0.825003H0.92499L0.87499 0.908336C0.83972 0.952335 0.809007 0.999801 0.783323 1.05C0.758917 1.10082 0.739385 1.15383 0.724989 1.20834V1.3C0.522769 2.70951 0.651698 4.14675 1.10155 5.49776C1.55141 6.84878 2.30982 8.07642 3.31666 9.08334L5.51666 11.275L1.00832 15.775C0.930216 15.8525 0.868221 15.9446 0.825913 16.0462C0.783606 16.1477 0.761824 16.2567 0.761824 16.3667C0.761824 16.4767 0.783606 16.5856 0.825913 16.6872C0.868221 16.7887 0.930216 16.8809 1.00832 16.9583C1.08619 17.0356 1.17854 17.0967 1.28007 17.1381C1.3816 17.1796 1.49032 17.2006 1.59999 17.2C1.70966 17.2006 1.81838 17.1796 1.91991 17.1381C2.02144 17.0967 2.11379 17.0356 2.19166 16.9583L7.24999 11.975L9.60832 9.61667L11.275 7.95C11.74 8.42 12.3722 8.68668 13.0333 8.69167ZM6.65832 10.2083L4.46666 8.00834C3.26537 6.79061 2.5132 5.20106 2.33332 3.5L7.84166 9L6.65832 10.2083ZM11.8583 10.6833C11.7014 10.5253 11.4881 10.4361 11.2654 10.4353C11.0427 10.4345 10.8288 10.5223 10.6708 10.6792C10.5128 10.8361 10.4236 11.0494 10.4228 11.2721C10.422 11.4948 10.5097 11.7086 10.6667 11.8667L15.9167 17.1167C16.0758 17.2615 16.2849 17.3391 16.5 17.3333C16.6097 17.334 16.7184 17.313 16.8199 17.2715C16.9214 17.23 17.0138 17.1689 17.0917 17.0917C17.1698 17.0142 17.2318 16.922 17.2741 16.8205C17.3164 16.7189 17.3382 16.61 17.3382 16.5C17.3382 16.39 17.3164 16.2811 17.2741 16.1795C17.2318 16.078 17.1698 15.9858 17.0917 15.9083L11.8583 10.6833Z" fill="#333333"/>
</svg>
