<svg width="43" height="42" viewBox="0 0 43 42" fill="none" xmlns="http://www.w3.org/2000/svg">
<g clip-path="url(#clip0_9_106)">
<path d="M20.1505 12.8699C20.1779 13.2529 20.5613 13.5218 20.9309 13.4181C21.1025 13.37 21.2474 13.2463 21.3225 13.0847C21.4106 12.895 21.3711 12.69 21.3485 12.4904C21.2368 11.5025 21.0498 9.84913 23.3986 9.06557C24.8816 8.56944 25.857 7.49278 26.2194 5.95207C26.4827 4.83275 26.3211 3.85707 26.3142 3.81614C26.2571 3.48203 25.9404 3.25742 25.6061 3.31403C25.2718 3.37014 25.046 3.6871 25.101 4.02163C25.1213 4.14459 25.5672 7.04251 23.0087 7.89859C19.7152 8.99724 20.0135 11.6355 20.1258 12.6287C20.1366 12.7246 20.146 12.8073 20.1505 12.8699Z" fill="black"/>
<path d="M25.9454 9.60306C23.7549 10.3342 23.963 12.1438 24.0314 12.7385C24.0542 12.9369 24.0767 13.1154 24.226 13.2631C24.3575 13.3933 24.5442 13.4581 24.7282 13.4374C24.9108 13.4168 25.0775 13.3128 25.1769 13.1583C25.2898 12.9824 25.2766 12.7965 25.2538 12.598C25.1682 11.8536 25.1865 11.1537 26.3356 10.7701C28.2248 10.1373 28.4253 8.23059 28.2673 7.31077C28.21 6.97724 27.8943 6.75378 27.5603 6.80973C27.2263 6.86526 27.0002 7.18174 27.0541 7.51593C27.0809 7.68246 27.2775 9.15681 25.9454 9.60306Z" fill="black"/>
<path d="M15.5349 12.8723C15.5624 13.2373 15.9153 13.5029 16.2737 13.4282C16.4417 13.3933 16.5898 13.2874 16.6775 13.1399C16.7797 12.9679 16.7651 12.7885 16.7431 12.5979C16.6576 11.8535 16.6759 11.1536 17.825 10.77C19.7141 10.1372 19.9146 8.23047 19.7566 7.31065C19.6991 6.9758 19.3816 6.75079 19.0461 6.80845C18.7113 6.86596 18.4865 7.18399 18.544 7.51893C18.5553 7.58504 18.8063 9.14364 17.4347 9.60301C15.2442 10.3342 15.4524 12.1438 15.5207 12.7384C15.5267 12.7894 15.532 12.8344 15.5349 12.8723Z" fill="black"/>
<path d="M41.7477 29.9275H40.8574C40.8735 29.8094 40.8817 29.6901 40.8817 29.5708C40.8817 28.5561 40.3006 27.6438 39.419 27.2008C39.419 26.587 39.2087 26.0217 38.857 25.572C40.0794 24.6965 40.9728 23.4194 41.4064 21.8997C41.6404 21.0867 41.4185 20.6665 40.6151 20.4013C38.8633 19.8224 37.0378 19.945 35.4593 20.7403C35.4544 20.6892 35.4494 20.6381 35.4433 20.587C35.2176 18.6293 34.194 16.8668 32.5607 15.6241C31.849 15.0828 31.3719 15.1382 30.8005 15.8283C29.9072 16.9073 29.3425 18.1749 29.1499 19.4959C28.6805 19.0933 28.0743 18.854 27.426 18.854C27.091 18.854 26.764 18.916 26.4591 19.0357C25.9671 18.5434 25.2981 18.2611 24.5844 18.2611C24.3127 18.2611 24.0421 18.3035 23.7841 18.3855C22.9894 17.701 21.7081 17.4461 19.9616 17.6274C19.6452 17.6612 19.3147 17.7026 18.9765 17.7505C18.9514 17.7396 18.9265 17.7284 18.9007 17.7192C17.821 17.3399 16.3445 17.2809 15.0471 17.5656C13.4206 17.9224 12.1852 18.7831 11.5684 19.9891C11.543 20.0385 11.5183 20.0883 11.4935 20.1379C10.2699 20.8916 9.46952 21.7661 9.11005 22.7415C8.60474 22.7878 8.11986 22.9787 7.72217 23.2906C7.27009 23.6068 6.93016 24.0546 6.74559 24.565C5.41012 24.7011 4.36455 25.8314 4.36455 27.2011V27.2015C3.48296 27.6446 2.90193 28.5564 2.90193 29.5707C2.90193 29.6902 2.91013 29.8094 2.92629 29.9274H2.03847C1.40691 29.9275 0.893066 30.4414 0.893066 31.073V32.8053C0.893066 34.3909 2.18301 35.6809 3.76851 35.6809H4.1415V36.5725C4.1415 37.7426 5.09339 38.6945 6.26357 38.6945H37.5226C38.6927 38.6945 39.6447 37.7426 39.6447 36.5725V35.6809H40.0154C41.6022 35.6809 42.8931 34.3909 42.8931 32.8053V31.073C42.8931 30.4414 42.3792 29.9275 41.7477 29.9275ZM35.4498 22.166C35.6008 22.0647 35.7563 21.9711 35.9152 21.8874C37.2205 21.1967 38.7496 21.0829 40.2218 21.5673C39.829 22.9384 38.9871 24.0658 37.8356 24.7759C37.5872 24.6664 37.3192 24.5933 37.0381 24.5649C36.8538 24.0554 36.515 23.6077 36.0645 23.2913C35.8436 23.1179 35.5956 22.9824 35.3324 22.8878C35.3842 22.6485 35.4233 22.4078 35.4498 22.166ZM31.7484 16.6133C31.7595 16.5999 31.7698 16.5876 31.7794 16.5762C31.7907 16.5846 31.8029 16.5937 31.8157 16.6036C33.1797 17.6415 34.034 19.1064 34.2211 20.7295C34.2949 21.3575 34.2653 21.9847 34.135 22.6012C33.7436 22.0252 33.1407 21.6244 32.4493 21.4921C32.0008 20.7354 31.2043 20.2489 30.3152 20.2007C30.3847 18.9147 30.8815 17.6603 31.7484 16.6133ZM12.6109 20.6551C12.6283 20.6208 12.6467 20.5846 12.6659 20.546C13.7209 18.4896 16.9922 18.3645 18.473 18.8732C19.2069 19.1957 19.5375 19.7146 19.4755 20.0425C19.4168 20.3539 18.9304 20.7313 17.7529 20.7706C16.4318 20.8155 15.7999 21.3973 15.3386 21.8221C15.191 21.958 15.0635 22.0755 14.9376 22.1537C14.362 22.5114 13.7975 22.381 13.5122 22.2716C13.0706 22.1021 12.7098 21.7661 12.6145 21.4359C12.4696 20.9331 12.4802 20.9121 12.6109 20.6551ZM5.18264 28.1998C5.4983 28.1144 5.69189 27.7969 5.62348 27.4772C5.6047 27.3896 5.59526 27.2968 5.59526 27.2013C5.59526 26.4186 6.23305 25.7818 7.01703 25.7818C7.05936 25.7818 7.10636 25.7845 7.16066 25.7902C7.49068 25.8247 7.78714 25.5917 7.83316 25.2639C7.8882 24.8725 8.10837 24.5184 8.43732 24.2924C8.44946 24.284 8.46135 24.2752 8.47292 24.266C8.58423 24.1772 8.70621 24.107 8.83607 24.0564C8.79875 24.7522 8.96133 25.3472 9.31866 25.7866C9.7485 26.3149 10.4166 26.5648 11.1999 26.4906C11.3562 26.4759 11.5161 26.4523 11.6856 26.4274C12.5771 26.2961 13.499 26.1603 14.3702 27.1198C15.0983 27.9207 16.2953 28.4112 17.6542 28.466C18.9467 28.517 20.2045 28.1825 21.1055 27.5455C21.3829 27.3494 21.4489 26.9654 21.2527 26.688C21.0566 26.4105 20.6727 26.3445 20.3952 26.5408C19.0834 27.468 16.4123 27.5368 15.2809 26.2925C13.9689 24.8473 12.487 25.0657 11.5063 25.2101C11.3532 25.2326 11.2087 25.2539 11.084 25.2657C10.7129 25.3014 10.4399 25.2151 10.2733 25.0101C10.0055 24.681 9.98804 24.0515 10.2254 23.2838C10.3983 22.7255 10.7955 22.1943 11.4098 21.6973C11.4169 21.7233 11.4245 21.7501 11.4323 21.7771C11.6353 22.4806 12.2633 23.1102 13.0711 23.4205C13.9197 23.7464 14.8368 23.6653 15.5868 23.199C15.8113 23.0597 15.9948 22.8907 16.1722 22.7274C16.5786 22.3531 16.9296 22.0299 17.7943 22.0006C20.1884 21.9206 20.6118 20.6564 20.6846 20.2709C20.7779 19.7761 20.6487 19.2735 20.3417 18.8284C21.7891 18.7157 22.8007 18.9751 23.204 19.5674C23.5985 20.1466 23.4729 21.157 22.8595 22.3395C22.5391 22.9574 21.9093 24.2706 21.8385 24.4165C21.69 24.7221 21.8174 25.0902 22.123 25.2387C22.4286 25.3872 22.7968 25.2598 22.9453 24.9541C23.0171 24.8065 23.6403 23.5066 23.9519 22.9059C24.6295 21.5996 24.823 20.4159 24.5231 19.4931C24.5436 19.4922 24.5641 19.4917 24.5847 19.4917C25.0705 19.4917 25.5178 19.7359 25.7813 20.1446C25.8709 20.2836 26.0127 20.3807 26.1747 20.4139C26.3367 20.4471 26.5052 20.4139 26.6423 20.3214C26.8721 20.1665 27.1431 20.0847 27.4262 20.0847C28.0633 20.0847 28.6264 20.5145 28.7955 21.1301C28.8423 21.3001 28.9598 21.442 29.1183 21.5196C29.2768 21.5971 29.4609 21.6028 29.6239 21.5355C29.7989 21.463 29.9827 21.4264 30.17 21.4264C30.7451 21.4264 31.2597 21.769 31.4812 22.2993C31.5726 22.5182 31.7816 22.665 32.0184 22.6768C32.5962 22.7054 33.0939 23.0789 33.2866 23.6285C33.3944 23.9359 33.723 24.1058 34.0363 24.0164C34.1648 23.9798 34.2988 23.961 34.4346 23.961C34.7596 23.961 35.0634 24.0665 35.3133 24.266C35.3245 24.2749 35.3359 24.2835 35.3477 24.2916C35.6759 24.5183 35.8956 24.8726 35.9507 25.264C35.9968 25.5917 36.2941 25.8247 36.6232 25.7903C36.6776 25.7847 36.7253 25.7819 36.7692 25.7819C37.5518 25.7819 38.1886 26.4187 38.1886 27.2014C38.1886 27.2964 38.1791 27.3927 38.1605 27.4875C38.0984 27.8042 38.2916 28.1151 38.6031 28.1998C39.2202 28.3673 39.6512 28.9311 39.6512 29.5709C39.6512 29.6927 39.6361 29.8119 39.6061 29.9277H4.17793C4.14774 29.8124 4.13256 29.6932 4.13256 29.5709C4.13256 28.9309 4.56437 28.3671 5.18264 28.1998ZM41.6626 32.8053C41.6626 33.7124 40.9237 34.4504 40.0153 34.4504H23.4638C23.124 34.4504 22.8486 34.7258 22.8486 35.0656C22.8486 35.4055 23.124 35.6809 23.4638 35.6809H38.4142V36.5725C38.4142 37.0641 38.0143 37.464 37.5226 37.464H6.26357C5.77196 37.464 5.37197 37.0641 5.37197 36.5725V35.6809H20.6037C20.9435 35.6809 21.2189 35.4055 21.2189 35.0656C21.2189 34.7258 20.9435 34.4504 20.6037 34.4504H3.76851C2.86149 34.4504 2.12354 33.7124 2.12354 32.8053V31.158H41.6626V32.8053Z" fill="black"/>
<path d="M26.3288 23.753C26.5139 23.5678 26.7604 23.4658 27.0226 23.4658C27.2849 23.4658 27.5314 23.5678 27.7165 23.753C27.8367 23.8732 27.9941 23.9332 28.1516 23.9332C28.3091 23.9332 28.4665 23.8732 28.5866 23.7531C28.8269 23.5128 28.8269 23.1233 28.5866 22.8831C28.169 22.4654 27.6136 22.2354 27.0226 22.2354C26.4317 22.2354 25.8762 22.4654 25.4586 22.8831C25.2183 23.1233 25.2184 23.5129 25.4586 23.7531C25.699 23.9933 26.0884 23.9934 26.3288 23.753Z" fill="black"/>
<path d="M33.2138 28.2212C33.3712 28.2212 33.5287 28.1612 33.6489 28.041C33.834 27.8558 34.0804 27.7538 34.3427 27.7538C34.605 27.7538 34.8514 27.8558 35.0365 28.041C35.2768 28.2813 35.6664 28.2812 35.9066 28.0411C36.1469 27.8008 36.1469 27.4112 35.9066 27.171C35.489 26.7533 34.9336 26.5233 34.3426 26.5233C33.7517 26.5233 33.1962 26.7533 32.7786 27.171C32.5383 27.4113 32.5384 27.8009 32.7787 28.0411C32.899 28.1611 33.0564 28.2212 33.2138 28.2212Z" fill="black"/>
<path d="M23.8659 27.5552C23.9858 27.675 24.1424 27.7347 24.2992 27.7347C24.4567 27.7347 24.6144 27.6744 24.7348 27.5539C24.9751 27.3137 24.9739 26.9231 24.7336 26.6827C24.4934 26.4425 24.1038 26.4425 23.8636 26.6827C23.6233 26.9231 23.6233 27.3125 23.8636 27.5528L23.8659 27.5552Z" fill="black"/>
<path d="M7.75385 28.1921C7.8737 28.312 8.03038 28.3717 8.18714 28.3717C8.34464 28.3717 8.5023 28.3113 8.62272 28.1909C8.86299 27.9506 8.86185 27.56 8.62158 27.3197C8.38131 27.0795 7.99174 27.0795 7.75155 27.3197C7.51128 27.56 7.51128 27.9495 7.75155 28.1898L7.75385 28.1921Z" fill="black"/>
<path d="M30.6932 25.8294C31.0329 25.8294 31.3084 25.5529 31.3084 25.213C31.3084 24.8732 31.0329 24.5978 30.6932 24.5978C30.3534 24.5978 30.0779 24.8732 30.0779 25.213V25.2153C30.0779 25.5552 30.3534 25.8294 30.6932 25.8294Z" fill="black"/>
<path d="M27.7942 27.1213C27.556 27.3636 27.5594 27.7531 27.8017 27.9913L27.8041 27.9936C27.9236 28.1111 28.0786 28.1695 28.2336 28.1695C28.3929 28.1695 28.5522 28.1078 28.6729 27.985C28.9111 27.7427 28.9066 27.352 28.6642 27.1138C28.4219 26.8755 28.0324 26.8789 27.7942 27.1213Z" fill="black"/>
</g>
<defs>
<clipPath id="clip0_9_106">
<rect width="42" height="42" fill="white" transform="translate(0.893066)"/>
</clipPath>
</defs>
</svg>
