<svg width="43" height="42" viewBox="0 0 43 42" fill="none" xmlns="http://www.w3.org/2000/svg">
<g clip-path="url(#clip0_9_47)">
<path d="M26.8108 7.57739C25.2926 7.57739 24.0573 8.8077 24.0573 10.3202C24.0574 11.8325 25.2926 13.0629 26.8108 13.0629C28.329 13.0629 29.5644 11.8326 29.5644 10.3202C29.5644 8.80778 28.3291 7.57739 26.8108 7.57739ZM26.8108 11.7772C26.0015 11.7772 25.343 11.1236 25.343 10.3202C25.3431 9.51678 26.0015 8.86315 26.8108 8.86315C27.6201 8.86315 28.2787 9.51678 28.2787 10.3202C28.2787 11.1236 27.6202 11.7772 26.8108 11.7772Z" fill="black"/>
<path d="M32.0352 1.66877L30.7649 0.405153C30.5023 0.143883 30.1534 0 29.7824 0C29.4115 0 29.0625 0.143883 28.7998 0.405153L27.5297 1.66877C27.2662 1.93094 27.1211 2.27982 27.1211 2.65109C27.1211 3.0222 27.2662 3.371 27.5298 3.63325L28.7999 4.89711C29.0627 5.15822 29.4115 5.30202 29.7825 5.30202C30.1535 5.30202 30.5024 5.15822 30.7651 4.89695L32.0353 3.63325C32.2987 3.371 32.4438 3.0222 32.4438 2.65117C32.4438 2.27998 32.2987 1.93127 32.0352 1.66877ZM31.1282 2.72188L29.8582 3.98541C29.8326 4.01093 29.8029 4.01626 29.7824 4.01626C29.7619 4.01626 29.7322 4.01084 29.7066 3.9855L28.4366 2.72188C28.4119 2.69736 28.4068 2.66988 28.4068 2.65109C28.4068 2.63222 28.412 2.60474 28.4366 2.58022L29.7065 1.31677C29.7322 1.29117 29.7619 1.28584 29.7824 1.28584C29.8028 1.28584 29.8325 1.29126 29.8582 1.31677L31.1282 2.58013C31.1529 2.60466 31.158 2.63222 31.158 2.65109C31.1579 2.66979 31.1527 2.69744 31.1282 2.72188Z" fill="black"/>
<path d="M9.9751 11.2091L8.94864 10.1881C8.71313 9.95374 8.40026 9.82471 8.06763 9.82471C7.73499 9.82471 7.42204 9.95382 7.18653 10.188L6.15998 11.2091C5.92349 11.4443 5.7933 11.7574 5.7933 12.0906C5.7933 12.4236 5.92357 12.7366 6.1599 12.9716L7.18661 13.9931C7.42212 14.2273 7.73499 14.3562 8.06763 14.3562C8.40026 14.3562 8.71321 14.2271 8.94856 13.9929L9.97494 12.9718C10.2114 12.7366 10.3416 12.4235 10.3417 12.0905C10.3418 11.7575 10.2116 11.4444 9.9751 11.2091ZM8.06746 13.056L7.09711 12.0904L8.06754 11.1251L9.03789 12.0904L8.06746 13.056Z" fill="black"/>
<path d="M36.6958 13.1354L35.6694 12.1144C35.4339 11.88 35.121 11.751 34.7882 11.751C34.4556 11.751 34.1427 11.8801 33.9071 12.1143L32.8806 13.1354C32.6441 13.3707 32.5139 13.6836 32.5139 14.0168C32.514 14.3499 32.6442 14.6628 32.8805 14.8979L33.9073 15.9194C34.1429 16.1537 34.4558 16.2825 34.7883 16.2825C35.121 16.2825 35.4339 16.1534 35.6693 15.9192L36.6957 14.898C36.9322 14.6628 37.0623 14.3499 37.0624 14.0168C37.0625 13.6837 36.9323 13.3708 36.6958 13.1354ZM34.7883 14.9824L33.818 14.0168L34.7883 13.0514L35.7587 14.0168L34.7883 14.9824Z" fill="black"/>
<path d="M15.0664 21.5333L14.978 21.4873C14.6628 21.3236 14.2748 21.4464 14.1111 21.7614C13.9475 22.0764 14.0702 22.4645 14.3852 22.6282L14.4736 22.6742C14.5684 22.7234 14.6697 22.7468 14.7695 22.7468C15.0018 22.7468 15.226 22.6204 15.3405 22.4001C15.5043 22.0851 15.3815 21.697 15.0664 21.5333Z" fill="black"/>
<path d="M21.6219 7.15692C21.6219 5.8139 21.0976 4.55267 20.1457 3.60554C19.5058 2.96873 18.4645 2.96873 17.8244 3.60554L15.3778 6.03973C15.1262 6.29009 15.1252 6.69713 15.3756 6.94881C15.6259 7.20048 16.033 7.20138 16.2847 6.95102L18.7311 4.51691C18.8711 4.37762 19.0988 4.37762 19.2387 4.51691C19.3542 4.63175 19.4602 4.7534 19.5584 4.87981C19.1636 4.98514 18.8954 5.44952 19.067 5.83326C19.1618 6.04548 19.3702 6.19281 19.6018 6.21151C19.8187 6.22898 19.9985 6.13473 20.1481 5.98576C20.2711 6.35859 20.3361 6.75251 20.3361 7.15676C20.3361 8.155 19.9464 9.09253 19.2388 9.79652C18.2166 10.8135 16.7476 11.1203 15.4549 10.7188C15.7097 10.398 15.5807 9.98142 15.2813 9.74681C14.9213 9.46471 14.371 9.64354 14.2579 10.0916C14.1418 10.0007 14.0294 9.903 13.9224 9.79661C13.8557 9.73024 13.8189 9.64214 13.8189 9.54871C13.819 9.45527 13.8557 9.36742 13.9224 9.30105L14.4846 8.74177C14.7363 8.49132 14.7373 8.08428 14.4869 7.83253C14.2365 7.58086 13.8295 7.57996 13.5778 7.83023L13.0155 8.38952C12.7045 8.69886 12.5332 9.1105 12.5331 9.54846C12.533 9.98659 12.7044 10.3983 13.0155 10.7078C13.9982 11.6859 15.2885 12.1747 16.5794 12.1749C16.257 12.1749 15.9357 12.175 16.5806 12.1749C17.225 12.1749 16.9041 12.1749 16.5819 12.1749C17.8724 12.1744 19.1632 11.6856 20.1456 10.7082C21.0977 9.76117 21.622 8.49994 21.6219 7.15692Z" fill="black"/>
<path d="M17.3845 8.87898L17.3138 8.80868C17.062 8.55848 16.6549 8.55971 16.4047 8.81138C16.1544 9.06322 16.1557 9.47018 16.4074 9.72054L16.4781 9.79084C16.6035 9.91544 16.7674 9.97771 16.9312 9.97771C17.0964 9.97771 17.2615 9.91446 17.3871 9.78805C17.6375 9.53621 17.6363 9.12925 17.3845 8.87898Z" fill="black"/>
<path d="M19.153 7.26154L19.0823 7.19108C18.8308 6.94039 18.4237 6.94113 18.1732 7.19272C17.9226 7.44431 17.9234 7.85126 18.1749 8.10179L18.2456 8.17225C18.371 8.29727 18.5351 8.35969 18.6993 8.35969C18.8642 8.35969 19.0291 8.29669 19.1547 8.17061C19.4053 7.9191 19.4044 7.51206 19.153 7.26154Z" fill="black"/>
<path d="M41.6978 23.8337C42.4678 22.4604 42.2403 20.7281 41.1015 19.5951C40.4283 18.9254 39.5336 18.5567 38.5819 18.5567C37.9687 18.5567 37.3754 18.7105 36.8471 19.004C36.3121 18.8177 35.7971 18.7236 35.3121 18.7236C35.1413 18.7236 34.9765 18.7363 34.8176 18.76C34.6032 17.9636 34.1202 17.2507 33.4351 16.7584C33.1467 16.5511 32.745 16.6169 32.5379 16.9053C32.3306 17.1936 32.3965 17.5952 32.6847 17.8025C33.1726 18.1531 33.5024 18.676 33.615 19.2533C33.5375 19.3129 33.4633 19.3768 33.3937 19.4461C33.0061 19.8317 32.7724 20.3407 32.6963 20.929C32.3212 20.7638 31.8924 20.6785 31.4232 20.6785C31.2765 20.6785 31.1267 20.6868 30.9741 20.7032C31.0811 19.698 30.8267 18.8297 30.2313 18.2372C30.1036 18.1103 29.9629 17.9987 29.8107 17.9027C30.2178 17.5654 30.7406 17.3617 31.3109 17.3617C31.6659 17.3617 31.9538 17.0739 31.9538 16.7188C31.9538 16.3637 31.6659 16.0759 31.3109 16.0759C30.1432 16.0759 29.1025 16.6274 28.4375 17.4825C28.3603 17.4775 28.2822 17.4744 28.2026 17.4744C28.056 17.4744 27.9063 17.4827 27.7537 17.4991C27.8608 16.4937 27.6063 15.6255 27.0108 15.0332C26.5093 14.5342 25.808 14.2705 24.9826 14.2705C24.4606 14.2705 23.9053 14.3733 23.3281 14.5763C22.7626 14.2579 22.1262 14.091 21.468 14.091C20.458 14.091 19.5081 14.4826 18.7937 15.1934C18.3227 15.6619 17.9993 16.2274 17.8275 16.8289L14.7991 13.8162C14.4657 13.4844 14.0225 13.3016 13.5513 13.3016C13.0801 13.3016 12.637 13.4844 12.3036 13.8161C11.3519 14.7629 10.7879 15.9935 10.6869 17.318C10.2797 17.0871 9.79364 16.967 9.25174 16.967C8.75865 16.967 8.23496 17.0639 7.69117 17.2554C7.1546 16.9536 6.55175 16.7955 5.9284 16.7955C4.96272 16.7955 4.05513 17.1734 3.37263 17.8594C2.21935 19.0186 1.99048 20.7923 2.77404 22.1956C2.27669 23.6279 2.43616 24.9271 3.22021 25.7154C3.30101 25.7966 3.38772 25.8708 3.47902 25.939L2.9199 26.4952C2.6204 26.7931 2.45552 27.1896 2.45552 27.6114C2.45552 27.6472 2.45691 27.6826 2.45929 27.7181C2.3013 27.8091 2.15741 27.9259 2.0356 28.067C1.72207 28.4299 1.58393 28.9094 1.65645 29.3825C2.09023 32.2184 3.53472 34.8156 5.72381 36.6953C7.04501 37.8297 8.5881 38.6567 10.2403 39.1383C10.1576 39.3236 10.1106 39.5281 10.1106 39.7438V40.5079C10.1106 41.3306 10.7798 41.9999 11.6023 41.9999H31.7206C32.5432 41.9999 33.2123 41.3305 33.2123 40.5079V39.7438C33.2123 39.5281 33.1653 39.3236 33.0827 39.1383C33.8592 38.9124 34.6133 38.6103 35.3298 38.2347C35.6444 38.0699 35.7656 37.6813 35.6008 37.3668C35.436 37.0524 35.0473 36.9309 34.7329 37.0959C33.5895 37.6952 32.3396 38.0862 31.0587 38.2518H12.2543C10.157 37.98 8.17417 37.1048 6.56119 35.7198C6.14111 35.359 5.75187 34.9685 5.39544 34.553H9.87042C10.2247 34.553 10.5119 34.2659 10.5119 33.9115C10.5119 33.5572 10.2247 33.27 9.87042 33.27H4.45036C4.11058 32.7295 3.81954 32.1601 3.58066 31.5681H12.0672C12.4216 31.5681 12.7088 31.2809 12.7088 30.9267C12.7088 30.5723 12.4216 30.2851 12.0672 30.2851H3.15524C3.06058 29.9247 2.98396 29.5588 2.92728 29.1879C2.91186 29.0873 2.94147 28.9851 3.00865 28.9074C3.07658 28.8287 3.17567 28.7836 3.28051 28.7836H40.0424C40.1473 28.7836 40.2464 28.8287 40.3142 28.9074C40.3813 28.9851 40.411 29.0873 40.3956 29.1882C40.0316 31.5677 38.8539 33.7866 37.0795 35.4359C36.8195 35.6776 36.8046 36.0844 37.0463 36.3445C37.2879 36.6043 37.6947 36.6194 37.9549 36.3776C39.9408 34.5319 41.259 32.0476 41.6665 29.3827C41.739 28.9095 41.6008 28.4301 41.2875 28.0672C41.1352 27.8909 40.9491 27.752 40.7432 27.6552C40.93 27.5507 41.1002 27.4233 41.2512 27.273C42.0262 26.5019 42.1859 25.2329 41.6978 23.8337ZM11.3962 39.744C11.3962 39.6302 11.4886 39.5377 11.6022 39.5377H31.7206C31.8342 39.5377 31.9265 39.6302 31.9265 39.744V40.5081C31.9265 40.6219 31.8342 40.7143 31.7206 40.7143H11.6022C11.4887 40.7143 11.3962 40.6219 11.3962 40.5081V39.744ZM18.1449 19.7902C18.0385 20.1056 17.9633 20.4143 17.919 20.7126C17.7426 20.72 17.571 20.7543 17.4094 20.8145C17.3363 20.5617 17.243 20.3148 17.1318 20.076C17.4874 20.0422 17.8294 19.9448 18.1449 19.7902ZM15.4454 16.2729L17.7344 18.5501C17.4716 18.7157 17.1665 18.8043 16.8475 18.8043C15.9905 18.8043 15.1875 18.0151 15.1875 17.1561C15.1877 16.8384 15.2776 16.5344 15.4454 16.2729ZM13.2105 14.7274C13.3014 14.637 13.4224 14.5872 13.5513 14.5872C13.6803 14.5872 13.8012 14.637 13.8923 14.7275L14.5229 15.355C14.1208 15.8678 13.902 16.495 13.902 17.156C13.902 17.2927 13.9115 17.4278 13.9301 17.5609C13.3996 17.6285 12.9341 17.9503 12.6849 18.4352L12.2436 19.294C12.0544 18.808 11.9547 18.2864 11.9547 17.7489C11.9545 16.6061 12.4005 15.5332 13.2105 14.7274ZM3.76466 27.498V27.4979C3.77753 27.4678 3.79681 27.4364 3.82659 27.4068L5.41989 25.8217C5.49552 25.7465 5.58403 25.7353 5.63021 25.7353C5.6764 25.7353 5.76516 25.7465 5.84079 25.8218L7.43408 27.4069C7.46386 27.4364 7.48322 27.4679 7.49602 27.498H3.76466ZM7.10104 25.2617L6.74748 24.9101C6.44881 24.613 6.05202 24.4495 5.63021 24.4495C5.20841 24.4495 4.81162 24.6131 4.51311 24.9102L4.41254 25.0102C4.30688 24.9563 4.21238 24.8899 4.13166 24.8086C3.66737 24.3418 3.64891 23.4299 4.08228 22.3694C4.16439 22.1683 4.13962 21.9394 4.01608 21.7607C3.37222 20.8288 3.48485 19.5692 4.28391 18.7659C4.72327 18.3243 5.30726 18.081 5.92823 18.081C6.40558 18.081 6.86388 18.2248 7.25345 18.497C7.4331 18.6225 7.66435 18.6478 7.86688 18.564C8.3603 18.3603 8.83912 18.2526 9.25157 18.2526C9.69946 18.2526 10.0472 18.3737 10.2849 18.6128C10.6907 19.0209 10.7578 19.7755 10.4688 20.6834C10.3957 20.9128 10.457 21.1637 10.6274 21.3336C10.754 21.4597 10.9251 21.5252 11.0987 21.5207L10.1626 23.342C10.0314 23.3473 9.90282 23.3613 9.77551 23.38L6.57144 20.1591C6.32108 19.9074 5.91412 19.9064 5.66229 20.1567C5.41053 20.4071 5.40955 20.8141 5.65991 21.0657L8.4384 23.8588C7.87574 24.1975 7.41103 24.6822 7.10104 25.2617ZM12.016 25.9724C11.705 26.2818 11.5336 26.6935 11.5336 27.1316C11.5336 27.2565 11.5489 27.379 11.5762 27.4978H8.79983C8.77292 27.1189 8.61329 26.7663 8.34094 26.4952L8.07795 26.2336C8.38508 25.3007 9.26888 24.6248 10.309 24.6248C11.1392 24.6248 11.8682 25.0563 12.2854 25.7043L12.016 25.9724ZM11.5053 23.5427L13.8283 19.0231C13.9159 18.8528 14.1303 18.7843 14.3004 18.8728C14.4486 18.9498 14.5889 19.036 14.7222 19.1295C14.3838 19.3439 14.2641 19.8576 14.528 20.1731C14.8398 20.5457 15.4145 20.4325 15.6145 20.012C15.9772 20.5175 16.2087 21.1057 16.2916 21.7184L14.1394 23.8596C13.9808 23.5915 13.6033 23.4336 13.3046 23.528C12.9102 23.6527 12.7342 24.1336 12.9555 24.4843C12.5592 24.0635 12.0633 23.7373 11.5053 23.5427ZM16.207 27.498C16.8669 27.1852 16.5278 26.2036 15.8595 26.2053C15.0993 26.2072 15.0489 27.2101 15.6563 27.4979H14.4492C14.4141 27.4547 14.3746 27.4146 14.3342 27.3763C14.0824 27.1261 13.6754 27.1274 13.4252 27.379C13.3391 27.4657 13.3606 27.4759 13.2604 27.4978C13.2143 27.5079 13.1004 27.5133 13.055 27.4978C12.8134 27.4159 12.754 27.0519 12.9231 26.8837L17.7317 22.0996C17.8698 21.9622 18.1013 21.9621 18.2393 22.0996C18.3548 22.2144 18.4609 22.336 18.559 22.4624C18.2941 22.533 18.0527 22.7978 18.0171 23.0699C17.972 23.4154 18.2198 23.7417 18.5657 23.7895C18.4283 24.206 18.3405 24.6403 18.3053 25.0854C18.0819 24.452 17.0651 24.4124 16.9902 25.1651C16.92 25.8677 17.9726 26.2668 18.2865 25.5606C18.2898 26.2332 18.412 26.8869 18.6431 27.4979H16.207V27.498ZM20.0512 27.4979C19.7385 26.8984 19.5716 26.2289 19.5716 25.5329C19.5716 24.3904 20.0176 23.3173 20.8275 22.5115C20.9184 22.4211 21.0394 22.3714 21.1684 22.3714C21.2974 22.3714 21.4184 22.4211 21.5094 22.5115L22.1401 23.1391C21.7379 23.6519 21.5192 24.2791 21.5192 24.9402C21.5192 25.7244 21.8261 26.4616 22.3832 27.0159C22.5756 27.2073 22.7903 27.3682 23.021 27.4978H20.0512V27.4979ZM24.4647 26.5883C24.0206 26.5883 23.6035 26.4164 23.2899 26.1044C22.9771 25.7932 22.8048 25.3797 22.8048 24.9401C22.8048 24.6225 22.8947 24.3184 23.0625 24.0567L25.3516 26.334C25.0888 26.4997 24.7837 26.5883 24.4647 26.5883ZM25.9086 27.4979C26.0363 27.4261 26.159 27.3446 26.2757 27.2535L26.5214 27.4979H25.9086ZM24.8232 23.9948C25.0594 23.2044 25.7969 22.6261 26.6682 22.6261C27.4877 22.6261 28.1888 23.1378 28.4659 23.8561C28.4161 23.896 28.3678 23.9382 28.3219 23.9838L26.5672 25.7296L24.8232 23.9948ZM31.8184 27.4625L31.7828 27.4979H28.18C28.0935 27.3051 27.972 27.1275 27.8174 26.9736L27.4785 26.6364L29.2285 24.8952C29.4142 24.7105 29.7254 24.7104 29.9112 24.8951L31.8184 26.7927C32.0019 26.9752 32.0019 27.2799 31.8184 27.4625ZM32.3369 25.4948L30.818 23.9836C30.5141 23.6814 30.1188 23.5045 29.6947 23.4752C29.254 22.2331 28.0645 21.3403 26.6683 21.3403C26.4245 21.3403 26.1872 21.3681 25.9589 21.4195L22.1198 17.6C21.868 17.3496 21.461 17.3506 21.2107 17.6022C20.9603 17.854 20.9613 18.261 21.213 18.5113L24.7188 21.9992C24.3598 22.2735 24.061 22.6219 23.8444 23.0207L23.5017 22.6798C23.5016 22.6796 23.5014 22.6795 23.5012 22.6793L22.4161 21.5999C22.0827 21.2681 21.6395 21.0855 21.1684 21.0855C20.6973 21.0855 20.2541 21.2682 19.9207 21.5999C19.8431 21.6771 19.7688 21.7569 19.6963 21.8378C19.5352 21.6118 19.3548 21.3971 19.1545 21.1968C19.1775 20.8028 19.2852 20.3582 19.4806 19.8853C19.5642 19.6829 19.539 19.4516 19.4135 19.272C18.7255 18.2865 18.8462 16.9544 19.7004 16.1046C20.1723 15.635 20.8 15.3765 21.4679 15.3765C21.9815 15.3765 22.4742 15.5295 22.8932 15.819C23.072 15.9425 23.3009 15.9675 23.5019 15.8852C24.0289 15.6698 24.5408 15.556 24.9827 15.556C25.4677 15.556 25.8451 15.6866 26.1041 15.9444C26.5408 16.3788 26.6143 17.178 26.3057 18.1375C26.232 18.3666 26.2925 18.6177 26.4624 18.7881C26.6323 18.9585 26.8832 19.0199 27.1126 18.947C27.5025 18.8228 27.8693 18.7599 28.2027 18.7599C28.688 18.7599 29.0655 18.8906 29.3246 19.1483C29.7611 19.5828 29.8346 20.3821 29.5262 21.3415C29.4525 21.5707 29.513 21.8218 29.683 21.9922C29.8528 22.1626 30.1038 22.2242 30.3332 22.1509C30.7231 22.0269 31.0899 21.9639 31.4234 21.9639C31.9086 21.9639 32.286 22.0947 32.5452 22.3526C32.8036 22.6097 32.9347 22.9837 32.9347 23.4644C32.9346 24.0822 32.7197 24.7878 32.3369 25.4948ZM36.8825 27.4979H34.1367C34.0756 27.3383 34.0419 27.1654 34.0419 26.9846C34.0419 26.1812 34.7003 25.5276 35.5097 25.5276C36.319 25.5276 36.9775 26.1812 36.9775 26.9846C36.9773 27.1653 36.9436 27.3382 36.8825 27.4979ZM40.4564 23.3959C40.331 23.5756 40.3057 23.8067 40.3893 24.0091C40.8121 25.0334 40.7954 25.9127 40.3443 26.3614C40.1119 26.5924 39.7715 26.7097 39.3324 26.7097C39.0268 26.7097 38.6903 26.6518 38.332 26.5377C38.2956 26.5261 38.2587 26.519 38.2216 26.5142C38.0839 25.7236 37.6057 25.048 36.9429 24.6436L38.8506 22.7457C39.1022 22.4953 39.1033 22.0883 38.8529 21.8366C38.6023 21.5849 38.1954 21.5839 37.9438 21.8344L35.5237 24.2421C35.5189 24.2421 35.5142 24.2418 35.5094 24.2418C34.9754 24.2418 34.4768 24.3944 34.0543 24.6577C34.1629 24.2493 34.2202 23.8484 34.2201 23.4644C34.2201 23.1962 34.1609 22.4677 34.1238 22.3523C33.842 21.4763 33.9064 20.7493 34.3003 20.3575C34.5326 20.1264 34.8729 20.0092 35.312 20.0092C35.7171 20.0092 36.1877 20.114 36.6726 20.3121C36.8736 20.3944 37.1026 20.3694 37.2813 20.2459C37.6634 19.9819 38.1132 19.8423 38.5817 19.8423C39.1912 19.8423 39.7639 20.0783 40.1945 20.5065C40.9739 21.2818 41.0839 22.4969 40.4564 23.3959Z" fill="black"/>
<path d="M36.36 34.2832C36.1292 34.0144 35.7242 33.9836 35.4554 34.2144C35.048 34.5643 34.6054 34.8789 34.1401 35.1494C33.8339 35.3273 33.7298 35.7201 33.9077 36.0263C34.0269 36.2312 34.2419 36.3456 34.463 36.3456C34.5724 36.3456 34.6833 36.3176 34.7848 36.2586C35.3176 35.9489 35.8245 35.5886 36.2912 35.1878C36.56 34.957 36.5908 34.552 36.36 34.2832Z" fill="black"/>
<path d="M38.9797 29.5136C38.6392 29.4168 38.2842 29.6142 38.187 29.9548C37.8798 31.0331 37.3744 32.0314 36.6847 32.9217C36.4677 33.2019 36.519 33.6048 36.7991 33.8218C36.9159 33.9123 37.0542 33.9561 37.1915 33.9561C37.383 33.9561 37.5727 33.8706 37.6991 33.7075C38.4894 32.687 39.0687 31.5428 39.421 30.3065C39.518 29.9658 39.3206 29.6107 38.9797 29.5136Z" fill="black"/>
</g>
<defs>
<clipPath id="clip0_9_47">
<rect width="42" height="42" fill="white" transform="translate(0.893066)"/>
</clipPath>
</defs>
</svg>
