<svg width="51" height="50" viewBox="0 0 51 50" fill="none" xmlns="http://www.w3.org/2000/svg">
<g clip-path="url(#clip0_4_0)">
<path d="M21.7264 41.6667C20.6213 41.6667 19.5615 41.2277 18.7801 40.4463C17.9987 39.6649 17.5597 38.6051 17.5597 37.5C17.5597 36.3949 17.9987 35.3351 18.7801 34.5537C19.5615 33.7723 20.6213 33.3333 21.7264 33.3333C22.8314 33.3333 23.8912 33.7723 24.6726 34.5537C25.454 35.3351 25.893 36.3949 25.893 37.5C25.893 38.6051 25.454 39.6649 24.6726 40.4463C23.8912 41.2277 22.8314 41.6667 21.7264 41.6667ZM36.3097 41.6667C35.2046 41.6667 34.1448 41.2277 33.3634 40.4463C32.582 39.6649 32.143 38.6051 32.143 37.5C32.143 36.3949 32.582 35.3351 33.3634 34.5537C34.1448 33.7723 35.2046 33.3333 36.3097 33.3333C37.4148 33.3333 38.4746 33.7723 39.256 34.5537C40.0374 35.3351 40.4764 36.3949 40.4764 37.5C40.4764 38.6051 40.0374 39.6649 39.256 40.4463C38.4746 41.2277 37.4148 41.6667 36.3097 41.6667ZM9.1472 12.3396C8.62712 12.3228 8.13395 12.1044 7.77199 11.7306C7.41002 11.3568 7.20764 10.8568 7.20764 10.3365C7.20764 9.8161 7.41002 9.31615 7.77199 8.94232C8.13395 8.5685 8.62712 8.3501 9.1472 8.33333H11.5451C13.4243 8.33333 15.0493 9.63749 15.4576 11.4708L18.068 23.225C18.4764 25.0583 20.1014 26.3625 21.9805 26.3625H37.6305L40.6347 14.3417H21.1659C20.6508 14.3182 20.1645 14.097 19.8082 13.7241C19.4519 13.3512 19.2531 12.8553 19.2531 12.3396C19.2531 11.8239 19.4519 11.328 19.8082 10.9551C20.1645 10.5822 20.6508 10.361 21.1659 10.3375H40.6347C41.2437 10.3373 41.8448 10.476 42.3922 10.743C42.9396 11.01 43.4189 11.3982 43.7937 11.8783C44.1685 12.3583 44.4289 12.9175 44.5551 13.5133C44.6814 14.1091 44.6701 14.7259 44.5222 15.3167L41.518 27.3333C41.3015 28.2004 40.8012 28.9702 40.0968 29.5202C39.3923 30.0702 38.5242 30.3689 37.6305 30.3687H21.9805C20.1572 30.369 18.3883 29.7473 16.966 28.6065C15.5437 27.4656 14.553 25.8737 14.1576 24.0937L11.5451 12.3396H9.1472Z" fill="black"/>
<circle cx="42.8931" cy="8" r="8" fill="#FE3F3F"/>
<path d="M45.4331 10.75V12H40.5431V10.85L42.9131 8.33C43.4064 7.79667 43.6531 7.31 43.6531 6.87C43.6531 6.59 43.5697 6.38 43.4031 6.24C43.2431 6.09333 43.0064 6.02 42.6931 6.02C42.0864 6.02 41.4564 6.25 40.8031 6.71L40.3031 5.59C40.5897 5.34333 40.9564 5.15 41.4031 5.01C41.8497 4.86333 42.3031 4.79 42.7631 4.79C43.5031 4.79 44.0897 4.97 44.5231 5.33C44.9631 5.68333 45.1831 6.16 45.1831 6.76C45.1831 7.17333 45.0964 7.55667 44.9231 7.91C44.7564 8.25667 44.4731 8.64333 44.0731 9.07L42.4631 10.75H45.4331Z" fill="white"/>
</g>
<defs>
<clipPath id="clip0_4_0">
<rect width="50" height="50" fill="white" transform="translate(0.893066)"/>
</clipPath>
</defs>
</svg>
