<svg width="16" height="15" viewBox="0 0 16 15" fill="none" xmlns="http://www.w3.org/2000/svg">
<path d="M6.94201 0.92705C7.24136 0.00573921 8.54477 0.00573969 8.84412 0.92705L9.91369 4.21885C10.0476 4.63087 10.4315 4.90983 10.8647 4.90983H14.3259C15.2947 4.90983 15.6974 6.14945 14.9137 6.71885L12.1136 8.75329C11.7631 9.00793 11.6164 9.4593 11.7503 9.87132L12.8199 13.1631C13.1192 14.0844 12.0647 14.8506 11.281 14.2812L8.48085 12.2467C8.13036 11.9921 7.65577 11.9921 7.30528 12.2467L4.50511 14.2812C3.7214 14.8506 2.66692 14.0844 2.96627 13.1631L4.03584 9.87132C4.16971 9.4593 4.02306 9.00793 3.67257 8.75329L0.872399 6.71885C0.0886855 6.14945 0.491461 4.90983 1.46018 4.90983H4.92138C5.35461 4.90983 5.73857 4.63087 5.87244 4.21885L6.94201 0.92705Z" fill="#C4C4C4"/>
</svg>
