<svg width="19" height="15" viewBox="0 0 19 15" fill="none" xmlns="http://www.w3.org/2000/svg">
<path d="M16.2935 3.97313C16.3048 4.12573 16.3048 4.27746 16.3048 4.42918C16.3048 9.07248 12.7707 14.423 6.31194 14.423C4.32208 14.423 2.47348 13.8466 0.917868 12.8455C1.20039 12.8778 1.47245 12.8891 1.7663 12.8891C3.3472 12.893 4.88333 12.3643 6.12708 11.3885C5.39411 11.3752 4.68358 11.1334 4.0947 10.6967C3.50582 10.2601 3.06798 9.65051 2.84233 8.95302C3.05945 8.98528 3.27745 9.00708 3.50591 9.00708C3.82069 9.00708 4.13722 8.96348 4.43108 8.88762C3.63562 8.72701 2.92035 8.29585 2.40688 7.66744C1.89341 7.03904 1.61344 6.25218 1.61458 5.44068V5.39708C2.08283 5.6578 2.62608 5.82086 3.20158 5.84266C2.71946 5.52228 2.32413 5.08755 2.05087 4.57723C1.77761 4.06692 1.63491 3.49691 1.63551 2.91804C1.63551 2.2658 1.80903 1.66762 2.11335 1.14617C2.99592 2.23181 4.09668 3.11995 5.34433 3.7531C6.59199 4.38624 7.95873 4.75026 9.35602 4.82157C9.30196 4.55998 9.26883 4.28879 9.26883 4.01673C9.2686 3.55542 9.35929 3.09859 9.53572 2.67235C9.71215 2.24611 9.97086 1.85882 10.2971 1.53262C10.6233 1.20643 11.0105 0.947719 11.4368 0.771289C11.863 0.594859 12.3199 0.504166 12.7812 0.504395C13.7927 0.504395 14.7056 0.928177 15.3474 1.61355C16.1337 1.4615 16.8878 1.17444 17.5762 0.765117C17.3141 1.57677 16.765 2.26501 16.0319 2.70091C16.7293 2.62137 17.4109 2.43797 18.054 2.1568C17.5737 2.85708 16.9785 3.47117 16.2935 3.97313Z" fill="white"/>
</svg>
